<svg xmlns="http://www.w3.org/2000/svg" width="51.745" height="30.87" viewBox="0 0 51.745 30.87"><g transform="translate(-364.515 -433.704)"><path d="M364.619,455.376h9.153l-1.09-5.074-3,1.85-5.061-8.747c13.95-12.642,36.731-13.233,51.586.027l-5.816,8.726L408,450.6l-1.024,4.71h9.053c1.111,3.906-1.979,8.479-6.035,9.053a20.768,20.768,0,0,1-2.873.2q-17.108.02-34.216.014a7.973,7.973,0,0,1-7.556-4.171A8.316,8.316,0,0,1,364.619,455.376Zm25.735,0v-.007c3.543,0,7.087.024,10.629-.009a3.77,3.77,0,0,0,3.728-3.656,10.749,10.749,0,0,0-.021-2.189,1.6,1.6,0,0,0-.723-1.059,26.431,26.431,0,0,0-8.726-2.444,37.473,37.473,0,0,0-16.522,1.454c-2.757.957-2.75.977-2.7,3.866a3.842,3.842,0,0,0,4.055,4.039C383.5,455.388,386.926,455.374,390.354,455.374Zm22.512,3.17H367.9a4.669,4.669,0,0,0,.273.707c1.091,1.786,2.782,2.239,4.751,2.235q17.439-.033,34.879-.016a9.3,9.3,0,0,0,1.725-.119A4.243,4.243,0,0,0,412.866,458.544Zm-5.923-17.886-1.166,5.195,3.824,2.041,2.607-3.961ZM370.7,447.849c1.4-.722,2.673-1.345,3.9-2.046a1.068,1.068,0,0,0,.413-.875A6.07,6.07,0,0,0,373,441.111l-4.5,2.926Zm18.486-5.236A7.273,7.273,0,0,0,387.7,437.4c-.179-.221-.477-.528-.692-.508-1.279.124-2.55.333-3.7.5l2.156,5.475Zm2.084-5.832,1.23,5.9c.8.058,1.754.1,2.7.207.648.076.983-.185.97-.8a24.6,24.6,0,0,0-.2-3.612,1.739,1.739,0,0,0-1.922-1.567C393.1,436.944,392.145,436.828,391.274,436.781Zm11.454,7.827a6.7,6.7,0,0,0,.778-4.571,1.526,1.526,0,0,0-.658-1.069c-1.186-.474-2.431-.8-3.653-1.184v5.83ZM382.353,443.3a22.289,22.289,0,0,0-1.336-3.337c-.949-1.581-1.345-1.642-3.082-1.035-.644.225-1.267.508-1.783.718l2.183,4.651Z" transform="translate(0)"/></g></svg>