<svg xmlns="http://www.w3.org/2000/svg" width="43" height="51.363" viewBox="0 0 43 51.363"><g transform="translate(-51.448 -395.557)"><path d="M54.459,443.729c-2.3-.5-3.084-1.192-3-2.644.075-1.326,1.037-2.077,2.993-2.289V435.77c-2.193-.4-3.068-1.187-2.994-2.654.07-1.378,1-2.121,3.064-2.318v-2.98c-2.4-.638-3.164-1.334-3.063-2.757.095-1.33,1.036-2.064,3.063-2.3v-3.009c-2.178-.335-3.07-1.094-3.065-2.53,0-1.418.882-2.159,2.979-2.454v-3.006c-2.253-.513-3.012-1.173-2.979-2.6.032-1.388.892-2.1,3-2.44v-3.015c-2.05-.289-2.958-1.027-3-2.4-.042-1.4.8-2.126,2.924-2.535.035-.059.1-.119.1-.183.179-2.7.537-3.035,3.243-3.035H91.542c2.316,0,2.906.591,2.906,2.91q0,22.81,0,45.62c0,2.224-.617,2.831-2.87,2.832h-33.7C54.971,446.92,54.669,446.644,54.459,443.729Zm38.416-22.4c0-7.64-.017-15.281.022-22.921,0-.982-.216-1.3-1.258-1.3q-17.133.058-34.267,0c-1.068,0-1.355.3-1.353,1.35q.045,22.806,0,45.613c0,1,.275,1.3,1.291,1.3q17.191-.05,34.381,0c.975,0,1.206-.3,1.2-1.235C92.86,436.53,92.875,428.928,92.875,421.326Zm-38.4-20.921c-.814-.06-1.532,0-1.479.888.053.9.769.827,1.479.685Zm-.022,41.639v-1.572c-.746-.1-1.489-.142-1.462.779C53.012,442.1,53.714,442.161,54.449,442.045Zm0-32.021V408.47c-.732-.142-1.448-.124-1.461.75S53.683,410.15,54.451,410.024Zm0,6.5-.336-.324c-.389.341-1.086.664-1.107,1.026-.052.918.69.9,1.442.742Zm.016,7.742a6.771,6.771,0,0,0-1.387.593.834.834,0,0,0,.042.8,6.113,6.113,0,0,0,1.345.547Zm0,7.866a7.5,7.5,0,0,0-1.408.784.819.819,0,0,0,.105.788,5.6,5.6,0,0,0,1.3.474Z" fill="#211d1e"/><path d="M109.372,431.561c5.44,1.444,8.4,5.021,9.129,10.466,1.727.323,2.518,1.7,1.751,3.242a2.066,2.066,0,0,1-1.581.772c-4.621.06-9.243.035-13.865.035q-4.584,0-9.167,0c-1.481,0-1.832-.256-1.9-1.36-.128-2.155.048-2.426,1.822-2.637.713-5.467,3.7-9.06,9.118-10.506.1-3.139.176-3.228,2.8-3.18C109.2,428.424,109.413,428.771,109.372,431.561ZM97.315,442.1a1.857,1.857,0,0,1,.645.063c.423.2,1.13.444,1.158.725.078.79-.651.766-1.225.778-.649.014-1.3-.037-1.946.027-.263.026-.5.281-.753.433a6.264,6.264,0,0,0,.7.365,1.359,1.359,0,0,0,.455.01h21.31a2.566,2.566,0,0,0,.683-.02,1.815,1.815,0,0,0,.488-.34c-.17-.153-.318-.386-.515-.44a3.529,3.529,0,0,0-.911-.03H103.2a2.626,2.626,0,0,1-1.019-.038,4.129,4.129,0,0,1-.9-.778,4.989,4.989,0,0,1,.875-.678,1.982,1.982,0,0,1,.792-.025h13.925a9.783,9.783,0,0,0-10.145-9.267C101.389,433.206,96.9,437.724,97.315,442.1Zm8.835-12.212c.048.527.089.982.128,1.411,1.667.134,1.7.1,1.6-1.411Z" transform="translate(-32.569 -25.3)" fill="#211d1e"/><path d="M107.243,529.546q5.958,0,11.916,0c.6,0,1.407-.1,1.276.8-.044.3-.828.708-1.276.71-7.982.044-15.964.033-23.946.034-.076,0-.177.04-.225.005-.374-.278-.737-.569-1.1-.857.366-.232.73-.661,1.1-.666C99.07,529.528,103.156,529.546,107.243,529.546Z" transform="translate(-32.704 -103.259)" fill="#211d1e"/><path d="M103.028,581.819c-2.711,0-5.423.015-8.134-.018a1.519,1.519,0,0,1-1.081-.4c-.391-.519.08-1.031.963-1.037,2.482-.016,4.964-.007,7.447-.007q4.525,0,9.05,0c.576,0,1.309-.045,1.191.777-.04.279-.768.646-1.189.655C108.528,581.848,105.778,581.819,103.028,581.819Z" transform="translate(-32.543 -142.417)" fill="#211d1e"/><path d="M100.363,546.351a21.943,21.943,0,0,1,1.185-2.05c.192-.264.609-.365.924-.539.169.308.476.611.486.923q.075,2.4,0,4.808c-.009.285-.354.558-.544.837-.22-.291-.6-.566-.63-.875-.085-.906-.03-1.826-.03-2.918a2.65,2.65,0,0,0-.389.359c-1.038,1.649-1.036,1.649-2.016-.089-.056-.1-.127-.19-.4-.6,0,1.253.055,2.2-.029,3.138-.031.344-.388.66-.6.989-.174-.32-.487-.635-.5-.96-.053-1.564-.048-3.13,0-4.694.009-.307.294-.606.452-.909.311.176.723.28.914.543A21.992,21.992,0,0,1,100.363,546.351Z" transform="translate(-35.707 -114.217)" fill="#211d1e"/><path d="M155.972,546.866c0,.83.052,1.664-.025,2.487-.031.33-.346.633-.531.948-.2-.3-.575-.587-.586-.891-.059-1.6-.047-3.2-.011-4.8a2.663,2.663,0,0,1,.363-.868c.343.18.826.272,1,.556a24.563,24.563,0,0,0,1.827,2.858c0-.842-.053-1.689.027-2.523.03-.318.367-.607.564-.909.193.305.543.6.554.917.057,1.6.046,3.2.008,4.8-.007.282-.254.558-.391.837-.313-.161-.757-.241-.917-.5-.6-.961-1.1-1.98-1.644-2.977Z" transform="translate(-79.641 -114.186)" fill="#211d1e"/><path d="M130.715,544.7v1.5l1.591.674-1.578.8V549.2a19.9,19.9,0,0,1,2.031.023c.265.028.5.309.754.474-.236.176-.472.354-.711.526-.025.018-.074,0-.112,0-3.927-.087-3.168.644-3.252-3.08-.019-.837.027-1.677-.01-2.513-.035-.8.31-1.089,1.092-1.036.72.049,1.452-.04,2.167.035.291.031.554.335.83.515-.285.183-.555.482-.86.525A14.637,14.637,0,0,1,130.715,544.7Z" transform="translate(-60.094 -114.089)" fill="#211d1e"/><path d="M182.907,546.452a11.993,11.993,0,0,1,.027-1.828c.049-.315.376-.587.577-.879.178.278.5.549.51.836.06,1.142.032,2.29.023,3.435,0,.67.119,1.256.935,1.3.885.045,1.081-.58,1.1-1.283.024-1.145-.025-2.292.033-3.435.015-.291.317-.568.487-.852.212.29.591.57.607.871.068,1.256.069,2.52.016,3.778-.058,1.358-.834,1.985-2.284,1.954a1.827,1.827,0,0,1-2.026-2.062C182.9,547.674,182.907,547.063,182.907,546.452Z" transform="translate(-101.294 -114.204)" fill="#211d1e"/><path d="M187.826,581.76a13,13,0,0,1-2.056-.034c-.3-.049-.544-.463-.813-.711.283-.235.555-.656.85-.672a36.614,36.614,0,0,1,4,0c.3.016.582.428.873.658-.3.255-.578.667-.918.732a10.536,10.536,0,0,1-1.94.034Z" transform="translate(-102.892 -142.367)" fill="#211d1e"/></g></svg>