<svg width="53" height="12" xmlns="http://www.w3.org/2000/svg">
 <!-- Generator: Sketch 52 (66869) - http://www.bohemiancoding.com/sketch -->

 <title>Group 4</title>
 <desc>Created with Sketch.</desc>
 <g>
  <title>background</title>
  <rect fill="none" id="canvas_background" height="402" width="582" y="-1" x="-1"/>
 </g>
 <g>
  <title>Layer 1</title>
  <g stroke-linejoin="round" stroke-linecap="round" opacity="0.3" fill-rule="evenodd" fill="none" id="Page-1">
   <g stroke-width="1.6" stroke="#303896" id="render_image">
    <g id="Group-6">
     <g id="Group-4">
      <path id="Path-2" d="m1,6.5l50,0"/>
      <path id="Path-3" d="m46,11l5.07813,-4.23178c0.42428,-0.35356 0.48161,-0.98413 0.12804,-1.4084c-0.03872,-0.04647 -0.08157,-0.08932 -0.12804,-0.12804l-5.07813,-4.23178"/>
     </g>
    </g>
   </g>
  </g>
  <g stroke-linejoin="round" stroke-linecap="round" opacity="0.3" fill-rule="evenodd" fill="none" id="svg_6">
   <g stroke-width="1.6" stroke="#303896" id="svg_5">
    <g id="svg_4">
     <g id="svg_3">
      <path id="svg_1" d="m1,6.5l50,0"/>
      <path id="svg_2" d="m46,11l5.07813,-4.23178c0.42428,-0.35356 0.48161,-0.98413 0.12804,-1.4084c-0.03872,-0.04647 -0.08157,-0.08932 -0.12804,-0.12804l-5.07813,-4.23178"/>
     </g>
    </g>
   </g>
  </g>
  <g stroke-linejoin="round" stroke-linecap="round" opacity="0.3" fill-rule="evenodd" fill="none" id="svg_12">
   <g stroke-width="1.6" stroke="#303896" id="svg_11">
    <g id="svg_10">
     <g id="svg_9">
      <path id="svg_7" d="m1,6.5l50,0"/>
      <path id="svg_8" d="m46,11l5.07813,-4.23178c0.42428,-0.35356 0.48161,-0.98413 0.12804,-1.4084c-0.03872,-0.04647 -0.08157,-0.08932 -0.12804,-0.12804l-5.07813,-4.23178"/>
     </g>
    </g>
   </g>
  </g>
  <g stroke-linejoin="round" stroke-linecap="round" opacity="0.3" fill-rule="evenodd" fill="none" id="svg_18">
   <g stroke-width="1.6" stroke="#303896" id="svg_17">
    <g id="svg_16">
     <g id="svg_15">
      <path id="svg_13" d="m1,6.5l50,0"/>
      <path id="svg_14" d="m46,11l5.07813,-4.23178c0.42428,-0.35356 0.48161,-0.98413 0.12804,-1.4084c-0.03872,-0.04647 -0.08157,-0.08932 -0.12804,-0.12804l-5.07813,-4.23178"/>
     </g>
    </g>
   </g>
  </g>
  <g stroke-linejoin="round" stroke-linecap="round" opacity="0.3" fill-rule="evenodd" fill="none" id="svg_24">
   <g stroke-width="1.6" stroke="#303896" id="svg_23">
    <g id="svg_22">
     <g id="svg_21">
      <path id="svg_19" d="m1,6.5l50,0"/>
      <path id="svg_20" d="m46,11l5.07813,-4.23178c0.42428,-0.35356 0.48161,-0.98413 0.12804,-1.4084c-0.03872,-0.04647 -0.08157,-0.08932 -0.12804,-0.12804l-5.07813,-4.23178"/>
     </g>
    </g>
   </g>
  </g>
  <g stroke-linejoin="round" stroke-linecap="round" opacity="0.3" fill-rule="evenodd" fill="none" id="svg_30">
   <g stroke-width="1.6" stroke="#303896" id="svg_29">
    <g id="svg_28">
     <g id="svg_27">
      <path id="svg_25" d="m1,6.5l50,0"/>
      <path id="svg_26" d="m46,11l5.07813,-4.23178c0.42428,-0.35356 0.48161,-0.98413 0.12804,-1.4084c-0.03872,-0.04647 -0.08157,-0.08932 -0.12804,-0.12804l-5.07813,-4.23178"/>
     </g>
    </g>
   </g>
  </g>
 </g>
</svg>