<?xml version="1.0" encoding="UTF-8" standalone="no"?>
<svg
   xmlns:dc="http://purl.org/dc/elements/1.1/"
   xmlns:cc="http://creativecommons.org/ns#"
   xmlns:rdf="http://www.w3.org/1999/02/22-rdf-syntax-ns#"
   xmlns:svg="http://www.w3.org/2000/svg"
   xmlns="http://www.w3.org/2000/svg"
   viewBox="0 0 1600 1066.6667"
   height="1066.6667"
   width="1600"
   xml:space="preserve"
   id="svg2"
   version="1.1"><metadata
     id="metadata8"><rdf:RDF><cc:Work
         rdf:about=""><dc:format>image/svg+xml</dc:format><dc:type
           rdf:resource="http://purl.org/dc/dcmitype/StillImage" /></cc:Work></rdf:RDF></metadata><defs
     id="defs6"><pattern
       id="pattern114"
       height="1200"
       width="1200"
       y="0"
       x="0"
       patternUnits="userSpaceOnUse"
       patternTransform="matrix(5.9808,0,0,5.9808,-4200,4205)"><g
         id="g112"
         transform="scale(0.1)"><path
           id="path16"
           style="fill:#000000;fill-opacity:1;fill-rule:nonzero;stroke:none"
           d="m 12010,-754.141 989.4,741.641 989.3,-741.641 0,-1488.289 -989.3,-741.64 -989.4,741.64 0,1488.289 z m 1998.7,-1498.289 0,1508.289 L 12999.4,12.5 11990,-744.141 l 0,-1508.289 1009.4,-756.64 1009.3,756.64" /><path
           id="path18"
           style="fill:#000000;fill-opacity:1;fill-rule:nonzero;stroke:none"
           d="m 2012.5,-754.141 989.37,741.641 989.37,-741.641 0,-1488.289 -989.37,-741.64 -989.37,741.64 0,1488.289 z m 1998.74,-1498.289 0,1508.289 L 3001.87,12.5 1992.5,-744.141 l 0,-1508.289 1009.37,-756.64 1009.37,756.64" /><path
           id="path20"
           style="fill:#000000;fill-opacity:1;fill-rule:nonzero;stroke:none"
           d="m 10,-754.141 989.363,741.641 989.367,-741.641 0,-1488.289 L 999.363,-2984.07 10,-2242.43 10,-754.141 Z m 1998.73,-1498.289 0,1508.289 L 999.363,12.5 -10,-744.141 l 0,-1508.289 1009.363,-756.64 1009.367,756.64" /><path
           id="path22"
           style="fill:#000000;fill-opacity:1;fill-rule:nonzero;stroke:none"
           d="m 4015.01,-754.141 989.36,741.641 989.37,-741.641 0,-1488.289 -989.37,-741.64 -989.36,741.64 0,1488.289 z m 1998.73,-1498.289 0,1508.289 L 5004.37,12.5 3995.01,-744.141 l 0,-1508.289 1009.36,-756.64 1009.37,756.64" /><path
           id="path24"
           style="fill:#000000;fill-opacity:1;fill-rule:nonzero;stroke:none"
           d="m 6017.5,-754.141 989.37,741.641 989.37,-741.641 0,-1488.289 -989.37,-741.64 -989.37,741.64 0,1488.289 z m 1998.74,-1498.289 0,1508.289 L 7006.87,12.5 5997.5,-744.141 l 0,-1508.289 1009.37,-756.64 1009.37,756.64" /><path
           id="path26"
           style="fill:#000000;fill-opacity:1;fill-rule:nonzero;stroke:none"
           d="m 8013.69,-754.141 989.37,741.641 989.36,-741.641 0,-1488.289 -989.36,-741.64 -989.37,741.64 0,1488.289 z m 1998.71,-1498.289 0,1508.289 L 9003.06,12.5 7993.69,-744.141 l 0,-1508.289 1009.37,-756.64 1009.34,756.64" /><path
           id="path28"
           style="fill:#000000;fill-opacity:1;fill-rule:nonzero;stroke:none"
           d="m 10010.3,-754.141 989.4,741.641 989.4,-741.641 0,-1488.289 -989.4,-741.64 -989.4,741.64 0,1488.289 z m 1998.8,-1498.289 0,1508.289 -1009.4,756.641 -1009.36,-756.641 0,-1508.289 1009.36,-756.64 1009.4,756.64" /><path
           id="path30"
           style="fill:#000000;fill-opacity:1;fill-rule:nonzero;stroke:none"
           d="m -1989.66,-754.141 989.37,741.641 989.3603,-741.641 0,-1488.289 -989.3603,-741.64 -989.37,741.64 0,1488.289 z M 9.07031,-2252.43 l 0,1508.289 L -1000.29,12.5 l -1009.37,-756.641 0,-1508.289 1009.37,-756.64 1009.36031,756.64" /><path
           id="path32"
           style="fill:#000000;fill-opacity:1;fill-rule:nonzero;stroke:none"
           d="m 12010,11245.9 989.4,741.6 989.3,-741.6 0,-1488.33 -989.3,-741.64 -989.4,741.64 0,1488.33 z m 1998.7,-1498.33 0,1508.33 -1009.3,756.6 -1009.4,-756.6 0,-1508.33 1009.4,-756.64 1009.3,756.64" /><path
           id="path34"
           style="fill:#000000;fill-opacity:1;fill-rule:nonzero;stroke:none"
           d="m 12010.9,8245.39 989.4,741.65 989.4,-741.65 0,-1488.28 -989.4,-741.65 -989.4,741.65 0,1488.28 z m 1998.8,-1498.28 0,1508.28 -1009.4,756.65 -1009.4,-756.65 0,-1508.28 1009.4,-756.65 1009.4,756.65" /><path
           id="path36"
           style="fill:#000000;fill-opacity:1;fill-rule:nonzero;stroke:none"
           d="m 12010.9,5244.25 989.4,741.65 989.4,-741.65 0,-1488.28 -989.4,-741.65 -989.4,741.65 0,1488.28 z m 1994.8,-1501.28 4,3 0,1508.28 -1009.4,756.64 -1005.4,-753.65 -4,-2.99 0,-1508.28 1003.4,-752.14 6,-4.51 1005.4,753.65" /><path
           id="path38"
           style="fill:#000000;fill-opacity:1;fill-rule:nonzero;stroke:none"
           d="m 12010.9,2242.43 989.4,741.64 989.4,-741.64 0,-1488.289 -989.4,-741.641 -989.4,741.641 0,1488.289 z m 1994.8,-1501.289 4,3 0,1508.289 -1003.4,752.14 -6,4.5 -1005.4,-753.64 -4,-3 0,-1508.289 L 12994.3,-8 l 6,-4.5 1005.4,753.641" /><path
           id="path40"
           style="fill:#000000;fill-opacity:1;fill-rule:nonzero;stroke:none"
           d="m 2012.5,11245.9 989.37,741.6 989.37,-741.6 0,-1488.33 -989.37,-741.64 -989.37,741.64 0,1488.33 z m 1998.74,-1498.33 0,1508.33 -1009.37,756.6 -1009.37,-756.6 0,-1508.33 1009.37,-756.64 1009.37,756.64" /><path
           id="path42"
           style="fill:#000000;fill-opacity:1;fill-rule:nonzero;stroke:none"
           d="m 2013.43,8245.39 989.36,741.65 989.37,-741.65 0,-1488.28 -989.37,-741.65 -989.36,741.65 0,1488.28 z m 1998.73,-1498.28 0,1508.28 -1009.37,756.65 -1009.36,-756.65 0,-1508.28 1009.36,-756.65 1009.37,756.65" /><path
           id="path44"
           style="fill:#000000;fill-opacity:1;fill-rule:nonzero;stroke:none"
           d="m 2013.43,5244.25 989.36,741.65 989.37,-741.65 0,-1488.28 -989.37,-741.65 -989.36,741.65 0,1488.28 z m 1994.73,-1501.28 4,3 0,1508.28 -1009.37,756.64 -1005.36,-753.65 -4,-2.99 0,-1508.28 1003.37,-752.14 5.99,-4.51 1005.37,753.65" /><path
           id="path46"
           style="fill:#000000;fill-opacity:1;fill-rule:nonzero;stroke:none"
           d="m 2013.43,2242.43 989.36,741.64 989.37,-741.64 0,-1488.289 -989.37,-741.641 -989.36,741.641 0,1488.289 z m 1994.73,-1501.289 4,3 0,1508.289 -1003.37,752.14 -6,4.5 -1005.36,-753.64 -4,-3 0,-1508.289 L 2996.8,-8 l 5.99,-4.5 1005.37,753.641" /><path
           id="path48"
           style="fill:#000000;fill-opacity:1;fill-rule:nonzero;stroke:none"
           d="m 10,11245.9 989.363,741.6 989.367,-741.6 0,-1488.33 L 999.363,9015.93 10,9757.57 10,11245.9 Z m 1998.73,-1498.33 0,1508.33 L 999.363,12012.5 -10,11255.9 -10,9747.57 999.363,8990.93 2008.73,9747.57" /><path
           id="path50"
           style="fill:#000000;fill-opacity:1;fill-rule:nonzero;stroke:none"
           d="m 10.9219,8245.39 989.3681,741.65 989.37,-741.65 0,-1488.28 -989.37,-741.65 -989.3681,741.65 0,1488.28 z M 2009.66,6747.11 l 0,1508.28 -1009.37,756.65 -1009.36813,-756.65 0,-1508.28 1009.36813,-756.65 1009.37,756.65" /><path
           id="path52"
           style="fill:#000000;fill-opacity:1;fill-rule:nonzero;stroke:none"
           d="m 10.9219,5244.25 989.3681,741.65 989.37,-741.65 0,-1488.28 -989.37,-741.65 -989.3681,741.65 0,1488.28 z M 2005.65,3742.97 l 4.01,3 0,1508.28 -1009.37,756.64 -1005.36422,-753.65 -4.00391,-2.99 0,-1508.28 1003.37113,-752.14 5.997,-4.51 1005.36,753.65" /><path
           id="path54"
           style="fill:#000000;fill-opacity:1;fill-rule:nonzero;stroke:none"
           d="m 10.9219,2242.43 989.3681,741.64 989.37,-741.64 0,-1488.289 L 1000.29,12.5 10.9219,754.141 l 0,1488.289 z M 2005.65,741.141 l 4.01,3 0,1508.289 -1003.38,752.14 -5.99,4.5 -1005.36422,-753.64 -4.00391,-3 0,-1508.289 L 994.293,-8 l 5.997,-4.5 1005.36,753.641" /><path
           id="path56"
           style="fill:#000000;fill-opacity:1;fill-rule:nonzero;stroke:none"
           d="m 4015.01,11245.9 989.36,741.6 989.37,-741.6 0,-1488.33 -989.37,-741.64 -989.36,741.64 0,1488.33 z m 1998.73,-1498.33 0,1508.33 -1009.37,756.6 -1009.36,-756.6 0,-1508.33 1009.36,-756.64 1009.37,756.64" /><path
           id="path58"
           style="fill:#000000;fill-opacity:1;fill-rule:nonzero;stroke:none"
           d="m 4015.93,8245.39 989.36,741.65 989.37,-741.65 0,-1488.28 -989.37,-741.65 -989.36,741.65 0,1488.28 z m 1998.73,-1498.28 0,1508.28 -1009.37,756.65 -1009.36,-756.65 0,-1508.28 1009.36,-756.65 1009.37,756.65" /><path
           id="path60"
           style="fill:#000000;fill-opacity:1;fill-rule:nonzero;stroke:none"
           d="m 4015.93,5244.25 989.36,741.65 989.37,-741.65 0,-1488.28 -989.37,-741.65 -989.36,741.65 0,1488.28 z m 1994.73,-1501.28 4,3 0,1508.28 -1009.37,756.64 -1005.36,-753.65 -4,-2.99 0,-1508.28 1003.37,-752.14 5.99,-4.51 1005.37,753.65" /><path
           id="path62"
           style="fill:#000000;fill-opacity:1;fill-rule:nonzero;stroke:none"
           d="m 4015.93,2242.43 989.36,741.64 989.37,-741.64 0,-1488.289 -989.37,-741.641 -989.36,741.641 0,1488.289 z m 1994.73,-1501.289 4,3 0,1508.289 -1003.37,752.14 -6,4.5 -1005.36,-753.64 -4,-3 0,-1508.289 L 4999.3,-8 l 5.99,-4.5 1005.37,753.641" /><path
           id="path64"
           style="fill:#000000;fill-opacity:1;fill-rule:nonzero;stroke:none"
           d="m 6017.5,11245.9 989.37,741.6 989.37,-741.6 0,-1488.33 -989.37,-741.64 -989.37,741.64 0,1488.33 z m 1998.74,-1498.33 0,1508.33 -1009.37,756.6 -1009.37,-756.6 0,-1508.33 1009.37,-756.64 1009.37,756.64" /><path
           id="path66"
           style="fill:#000000;fill-opacity:1;fill-rule:nonzero;stroke:none"
           d="m 6018.43,8245.39 989.36,741.65 989.37,-741.65 0,-1488.28 -989.37,-741.65 -989.36,741.65 0,1488.28 z m 1998.73,-1498.28 0,1508.28 -1009.37,756.65 -1009.36,-756.65 0,-1508.28 1009.36,-756.65 1009.37,756.65" /><path
           id="path68"
           style="fill:#000000;fill-opacity:1;fill-rule:nonzero;stroke:none"
           d="m 6018.43,5244.25 989.36,741.65 989.38,-741.65 0,-1488.28 -989.38,-741.65 -989.36,741.65 0,1488.28 z m 1994.73,-1501.28 4.01,3 0,1508.28 -1009.38,756.64 -1005.36,-753.65 -4,-2.99 0,-1508.28 1003.37,-752.14 5.99,-4.51 1005.37,753.65" /><path
           id="path70"
           style="fill:#000000;fill-opacity:1;fill-rule:nonzero;stroke:none"
           d="m 6018.43,2242.43 989.36,741.64 989.38,-741.64 0,-1488.289 -989.38,-741.641 -989.36,741.641 0,1488.289 z m 1994.73,-1501.289 4.01,3 0,1508.289 -1003.38,752.14 -6,4.5 -1005.36,-753.64 -4,-3 0,-1508.289 L 7001.8,-8 l 5.99,-4.5 1005.37,753.641" /><path
           id="path72"
           style="fill:#000000;fill-opacity:1;fill-rule:nonzero;stroke:none"
           d="m 8013.69,11245.9 989.37,741.6 989.36,-741.6 0,-1488.33 -989.36,-741.64 -989.37,741.64 0,1488.33 z m 1998.71,-1498.33 0,1508.33 -1009.34,756.6 -1009.37,-756.6 0,-1508.33 1009.37,-756.64 1009.34,756.64" /><path
           id="path74"
           style="fill:#000000;fill-opacity:1;fill-rule:nonzero;stroke:none"
           d="m 8014.61,8245.39 989.36,741.65 989.37,-741.65 0,-1488.28 -989.37,-741.65 -989.36,741.65 0,1488.28 z m 1998.69,-1498.28 0,1508.28 -1009.33,756.65 -1009.36,-756.65 0,-1508.28 1009.36,-756.65 1009.33,756.65" /><path
           id="path76"
           style="fill:#000000;fill-opacity:1;fill-rule:nonzero;stroke:none"
           d="m 8014.61,5244.25 989.36,741.65 989.37,-741.65 0,-1488.28 -989.37,-741.65 -989.36,741.65 0,1488.28 z m 1994.69,-1501.28 4,3 0,1508.28 -1009.33,756.64 -1005.36,-753.65 -4,-2.99 0,-1508.28 1003.37,-752.14 5.99,-4.51 1005.33,753.65" /><path
           id="path78"
           style="fill:#000000;fill-opacity:1;fill-rule:nonzero;stroke:none"
           d="m 8014.61,2242.43 989.36,741.64 989.37,-741.64 0,-1488.289 -989.37,-741.641 -989.36,741.641 0,1488.289 z m 1994.69,-1501.289 4,3 0,1508.289 -1003.33,752.14 -6,4.5 -1005.36,-753.64 -4,-3 0,-1508.289 L 8997.98,-8 l 5.99,-4.5 1005.33,753.641" /><path
           id="path80"
           style="fill:#000000;fill-opacity:1;fill-rule:nonzero;stroke:none"
           d="m 10010.3,11245.9 989.4,741.6 989.4,-741.6 0,-1488.33 -989.4,-741.64 -989.4,741.64 0,1488.33 z m 1998.8,-1498.33 0,1508.33 -1009.4,756.6 -1009.36,-756.6 0,-1508.33 1009.36,-756.64 1009.4,756.64" /><path
           id="path82"
           style="fill:#000000;fill-opacity:1;fill-rule:nonzero;stroke:none"
           d="m 10011.3,8245.39 989.3,741.65 989.4,-741.65 0,-1488.28 -989.4,-741.65 -989.3,741.65 0,1488.28 z m 1998.7,-1498.28 0,1508.28 -1009.4,756.65 -1009.33,-756.65 0,-1508.28 1009.33,-756.65 1009.4,756.65" /><path
           id="path84"
           style="fill:#000000;fill-opacity:1;fill-rule:nonzero;stroke:none"
           d="m 10011.3,5244.25 989.3,741.65 989.4,-741.65 0,-1488.28 -989.4,-741.65 -989.3,741.65 0,1488.28 z m 1994.7,-1501.28 4,3 0,1508.28 -1009.4,756.64 -1005.33,-753.65 -4,-2.99 0,-1508.28 1003.33,-752.14 6,-4.51 1005.4,753.65" /><path
           id="path86"
           style="fill:#000000;fill-opacity:1;fill-rule:nonzero;stroke:none"
           d="m 10011.3,2242.43 989.3,741.64 989.4,-741.64 0,-1488.289 -989.4,-741.641 -989.3,741.641 0,1488.289 z M 12006,741.141 l 4,3 0,1508.289 -1003.4,752.14 -6,4.5 -1005.33,-753.64 -4,-3 0,-1508.289 L 10994.6,-8 l 6,-4.5 1005.4,753.641" /><path
           id="path88"
           style="fill:#000000;fill-opacity:1;fill-rule:nonzero;stroke:none"
           d="m -1989.66,11245.9 989.37,741.6 989.3603,-741.6 0,-1488.33 -989.3603,-741.64 -989.37,741.64 0,1488.33 z M 9.07031,9747.57 l 0,1508.33 -1009.36031,756.6 -1009.37,-756.6 0,-1508.33 1009.37,-756.64 1009.36031,756.64" /><path
           id="path90"
           style="fill:#000000;fill-opacity:1;fill-rule:nonzero;stroke:none"
           d="m -1988.73,8245.39 989.367,741.65 989.363,-741.65 0,-1488.28 -989.363,-741.65 -989.367,741.65 0,1488.28 z M 10,6747.11 l 0,1508.28 -1009.363,756.65 -1009.367,-756.65 0,-1508.28 L -999.363,5990.46 10,6747.11" /><path
           id="path92"
           style="fill:#000000;fill-opacity:1;fill-rule:nonzero;stroke:none"
           d="M -1988.73,5244.25 -999.363,5985.9 -10,5244.25 l 0,-1488.28 -989.363,-741.65 -989.367,741.65 0,1488.28 z M 5.99609,3742.97 l 4.00391,3 0,1508.28 -1009.363,756.64 -1005.367,-753.65 -4,-2.99 0,-1508.28 1003.37,-752.14 5.997,-4.51 1005.35909,753.65" /><path
           id="path94"
           style="fill:#000000;fill-opacity:1;fill-rule:nonzero;stroke:none"
           d="M -1988.73,2242.43 -999.363,2984.07 -10,2242.43 -10,754.141 -999.363,12.5 l -989.367,741.641 0,1488.289 z M 5.99609,741.141 l 4.00391,3 0,1508.289 -1003.367,752.14 -5.996,4.5 -1005.367,-753.64 -4,-3 0,-1508.289 L -1005.36,-8 -999.363,-12.5 5.99609,741.141" /><path
           id="path96"
           style="fill:#000000;fill-opacity:1;fill-rule:nonzero;stroke:none"
           d="m 12010.9,14242.4 989.4,741.7 989.4,-741.7 0,-1488.3 -989.4,-741.6 -989.4,741.6 0,1488.3 z m 1994.8,-1501.3 4,3 0,1508.3 -1003.4,752.2 -6,4.5 -1005.4,-753.7 -4,-3 0,-1508.3 1003.4,-752.1 6,-4.5 1005.4,753.6" /><path
           id="path98"
           style="fill:#000000;fill-opacity:1;fill-rule:nonzero;stroke:none"
           d="m 2013.43,14242.4 989.36,741.7 989.37,-741.7 0,-1488.3 -989.37,-741.6 -989.36,741.6 0,1488.3 z m 1994.73,-1501.3 4,3 0,1508.3 -1003.37,752.2 -6,4.5 -1005.36,-753.7 -4,-3 0,-1508.3 1003.37,-752.1 5.99,-4.5 1005.37,753.6" /><path
           id="path100"
           style="fill:#000000;fill-opacity:1;fill-rule:nonzero;stroke:none"
           d="m 10.9219,14242.4 989.3681,741.7 989.37,-741.7 0,-1488.3 -989.37,-741.6 -989.3681,741.6 0,1488.3 z m 1994.7281,-1501.3 4.01,3 0,1508.3 -1003.38,752.2 -5.99,4.5 -1005.36422,-753.7 -4.00391,-3 0,-1508.3 1003.37113,-752.1 5.997,-4.5 1005.36,753.6" /><path
           id="path102"
           style="fill:#000000;fill-opacity:1;fill-rule:nonzero;stroke:none"
           d="m 4015.93,14242.4 989.36,741.7 989.37,-741.7 0,-1488.3 -989.37,-741.6 -989.36,741.6 0,1488.3 z m 1994.73,-1501.3 4,3 0,1508.3 -1003.37,752.2 -6,4.5 -1005.36,-753.7 -4,-3 0,-1508.3 1003.37,-752.1 5.99,-4.5 1005.37,753.6" /><path
           id="path104"
           style="fill:#000000;fill-opacity:1;fill-rule:nonzero;stroke:none"
           d="m 6018.43,14242.4 989.36,741.7 989.38,-741.7 0,-1488.3 -989.38,-741.6 -989.36,741.6 0,1488.3 z m 1994.73,-1501.3 4.01,3 0,1508.3 -1003.38,752.2 -6,4.5 -1005.36,-753.7 -4,-3 0,-1508.3 1003.37,-752.1 5.99,-4.5 1005.37,753.6" /><path
           id="path106"
           style="fill:#000000;fill-opacity:1;fill-rule:nonzero;stroke:none"
           d="m 8014.61,14242.4 989.36,741.7 989.37,-741.7 0,-1488.3 -989.37,-741.6 -989.36,741.6 0,1488.3 z m 1994.69,-1501.3 4,3 0,1508.3 -1003.33,752.2 -6,4.5 -1005.36,-753.7 -4,-3 0,-1508.3 1003.37,-752.1 5.99,-4.5 1005.33,753.6" /><path
           id="path108"
           style="fill:#000000;fill-opacity:1;fill-rule:nonzero;stroke:none"
           d="m 10011.3,14242.4 989.3,741.7 989.4,-741.7 0,-1488.3 -989.4,-741.6 -989.3,741.6 0,1488.3 z m 1994.7,-1501.3 4,3 0,1508.3 -1003.4,752.2 -6,4.5 -1005.33,-753.7 -4,-3 0,-1508.3 1003.33,-752.1 6,-4.5 1005.4,753.6" /><path
           id="path110"
           style="fill:#000000;fill-opacity:1;fill-rule:nonzero;stroke:none"
           d="m -1988.73,14242.4 989.367,741.7 989.363,-741.7 0,-1488.3 -989.363,-741.6 -989.367,741.6 0,1488.3 z M 5.99609,12741.1 l 4.00391,3 0,1508.3 -1003.367,752.2 -5.996,4.5 -1005.367,-753.7 -4,-3 0,-1508.3 1003.37,-752.1 5.997,-4.5 1005.35909,753.6" /></g></pattern></defs><g
     transform="matrix(1.3333333,0,0,-1.3333333,0,1066.6667)"
     id="g10"><g
       transform="scale(0.1)"
       id="g12"><path
         id="path14"
         style="fill:#f9f7f7;fill-opacity:1;fill-rule:nonzero;stroke:none"
         d="M 12000,0 H 0 V 8000 H 12000 V 0" /><path
         id="path116"
         style="fill:url(#pattern114);fill-opacity:1;fill-rule:nonzero;stroke:none"
         d="M 12000,0 H 0 V 8000 H 12000 V 0" /></g></g></svg>