<?xml version="1.0" encoding="UTF-8"?>
<svg width="120px" height="23px" viewBox="0 0 120 23" version="1.1" xmlns="http://www.w3.org/2000/svg" xmlns:xlink="http://www.w3.org/1999/xlink">
    <!-- Generator: Sketch 52 (66869) - http://www.bohemiancoding.com/sketch -->
    <title>Group</title>
    <desc>Created with Sketch.</desc>
    <g id="Page-1" stroke="none" stroke-width="1" fill="none" fill-rule="evenodd">
        <g id="Group" fill="#000206">
            <g id="Group-2">
                <g id="Group-3">
                    <polygon id="Fill-1" points="119.153528 1.70998848 118.100015 0.148145873 114.75038 2.78238772 115.465313 3.85501727"></polygon>
                    <g id="Group-43" transform="translate(0.000000, 1.603301)">
                        <path d="M45.5786718,6.44796161 C45.5786718,5.61993858 46.5004376,5.28135893 47.3473474,5.28135893 C48.4952937,5.28135893 49.4361766,5.58239539 50.2264261,5.97763532 L50.2264261,4.03920921 C49.2855432,3.58776967 48.363547,3.43713628 47.2156008,3.43713628 C45.3340653,3.43713628 43.4898426,4.54730902 43.4898426,6.46684837 C43.4898426,7.67099424 44.2050058,8.4239309 45.0892284,8.91291363 C46.6135278,9.75959309 48.7774434,9.92911324 48.7774434,11.3027793 C48.7774434,12.0930288 48.1000537,12.6577889 47.1216276,12.6577889 C45.7857351,12.6577889 44.524929,12.2812054 43.5465029,11.7166756 L43.5465029,13.7677313 C44.3742956,14.2194012 45.4655816,14.5017812 47.0651977,14.5017812 C49.0973666,14.5017812 50.8662726,13.1845451 50.8662726,11.2838925 C50.8662726,7.65233781 45.5786718,8.17909405 45.5786718,6.44796161" id="Fill-2"></path>
                        <polygon id="Fill-4" points="29.5088061 3.66313244 26.7239309 11.6040921 23.9390557 3.66313244 21.6620499 3.66313244 25.6135278 14.3511939 27.7587869 14.3511939 31.7104952 3.66313244"></polygon>
                        <path d="M35.2668484,10.0042917 L36.7344875,5.97749712 L38.2210134,10.0042917 L35.2668484,10.0042917 Z M35.5867716,3.6631785 L31.4846603,14.3512399 L33.686119,14.3512399 L34.570572,11.9049443 L38.9175202,11.9049443 L39.8017428,14.3512399 L42.0598618,14.3512399 L37.9952937,3.6631785 L35.5867716,3.6631785 Z" id="Fill-6"></path>
                        <polygon id="Fill-8" points="52.710357 5.43173896 54.7425259 5.43173896 54.7425259 12.5824491 52.710357 12.5824491 52.710357 14.3513551 58.8257505 14.3513551 58.8257505 12.5824491 56.8124683 12.5824491 56.8124683 5.43173896 58.8257505 5.43173896 58.8257505 3.66306334 52.710357 3.66306334"></polygon>
                        <path d="M68.7048599,9.00718618 C68.7048599,12.1117543 71.0758388,14.5769367 74.4439002,14.5769367 C76.4198695,14.5769367 77.1161459,14.2005835 77.8124223,13.7678004 L77.8124223,11.7542879 C77.0594856,12.2623877 75.8928829,12.7140576 74.5005605,12.7140576 C72.4117313,12.7140576 70.7934587,11.1144415 70.7934587,9.00718618 C70.7934587,6.95590019 72.3366449,5.30008445 74.406357,5.30008445 C75.7235931,5.30008445 76.8901958,5.77041075 77.8124223,6.39160077 L77.8124223,4.34054511 C77.1725758,3.90753167 76.0246296,3.43720537 74.406357,3.43720537 C71.0382956,3.43720537 68.7048599,5.90215739 68.7048599,9.00718618" id="Fill-10"></path>
                        <polygon id="Fill-12" points="63.4923916 3.66313244 61.4226795 3.66313244 61.4226795 14.3511939 67.6887063 14.3511939 67.6887063 12.3565681 63.4923916 12.3565681"></polygon>
                        <polygon id="Fill-14" points="112.059524 3.66313244 109.331079 3.66313244 105.059447 8.49906334 105.059447 3.66313244 102.970848 3.66313244 102.970848 14.3511939 105.059447 14.3511939 105.059447 11.3779117 106.376683 9.92915931 109.481482 14.3511939 112.097067 14.3511939 107.825436 8.32977351"></polygon>
                        <polygon id="Fill-16" points="119.925029 5.43173896 119.925029 3.66306334 113.809405 3.66306334 113.809405 5.43173896 115.841574 5.43173896 115.841574 12.5824491 113.809405 12.5824491 113.809405 14.3513551 119.925029 14.3513551 119.925029 12.5824491 117.911747 12.5824491 117.911747 5.43173896"></polygon>
                        <path d="M96.0462265,14.5957543 C98.3418887,14.5957543 100.167225,13.1845451 100.167225,10.5689597 L100.167225,3.66308637 L98.0783954,3.66308637 L98.0783954,10.4183263 C98.0783954,11.8295355 97.3259194,12.5635854 96.0462265,12.5635854 C94.8229635,12.5635854 94.032714,11.8295355 94.032714,10.4183263 L94.032714,3.66308637 L91.9438848,3.66308637 L91.9438848,10.5689597 C91.9438848,13.1845451 93.7692207,14.5957543 96.0462265,14.5957543" id="Fill-18"></path>
                        <polygon id="Fill-20" points="82.4036545 9.92906718 87.0516392 9.92906718 87.0516392 14.3513321 89.1588944 14.3513321 89.1588944 3.66304031 87.0516392 3.66304031 87.0516392 7.95332821 82.4036545 7.95332821 82.4036545 3.66304031 80.3150557 3.66304031 80.3150557 14.3513321 82.4036545 14.3513321"></polygon>
                        <polygon id="Fill-22" points="1.72254127 11.4636392 3.43616891 14.3512399 5.08622649 14.3512399 5.08622649 5.25864875 7.15294434 5.25864875 7.15294434 3.69242994 3.5193167 3.69242994 3.5193167 11.7637543 1.807762 8.8800691 0.148261036 8.88237236 0.148261036 14.3512399 1.72254127 14.3512399"></polygon>
                        <path d="M7.13566987,6.23078695 L7.13566987,6.9993858 C7.13566987,8.30303263 7.72000768,8.88898273 9.02503647,8.88898273 L9.47739731,8.88898273 L9.47739731,10.047524 L10.8439232,10.047524 L10.8439232,6.23078695 L9.47739731,6.23078695 L9.47739731,7.50840691 L9.02503647,7.50840691 C8.74426871,7.50840691 8.5155547,7.49666027 8.5155547,7.09773512 L8.5155547,6.23078695 L7.13566987,6.23078695 Z" id="Fill-24"></path>
                        <polygon id="Fill-26" points="14.4174818 14.351263 14.4174818 3.69245298 10.7470019 3.69245298 10.7470019 5.25867179 12.8496507 5.25867179 12.8496507 14.351263"></polygon>
                        <polygon id="Fill-28" points="7.15278311 12.3894818 10.843762 12.3894818 10.843762 11.008215 7.15278311 11.008215"></polygon>
                        <path d="M15.8566756,0.0804760077 L2.32523608,0.0804760077 C0.800015355,0.0804760077 0.148882917,0.730917466 0.148882917,2.25659885 L0.148882917,7.89982342 L1.73813436,7.89982342 L1.73813436,2.25659885 C1.73813436,1.93252975 2.00162764,1.66880614 2.32523608,1.66880614 L15.8566756,1.66880614 C16.1795931,1.66880614 16.442856,1.93252975 16.442856,2.25659885 L16.442856,15.7875777 C16.442856,16.1104952 16.1795931,16.3732975 15.8566756,16.3732975 L2.32523608,16.3732975 C2.00162764,16.3732975 1.73813436,16.1104952 1.73813436,15.7875777 L1.73813436,15.1703033 L0.148882917,15.1703033 L0.148882917,15.7875777 C0.148882917,17.3116468 0.800015355,17.9639309 2.32523608,17.9639309 L15.8566756,17.9639309 C17.380975,17.9639309 18.0321075,17.3116468 18.0321075,15.7875777 L18.0321075,2.25659885 C18.0321075,0.730917466 17.380975,0.0804760077 15.8566756,0.0804760077" id="Fill-30"></path>
                        <path d="M82.3224645,19.8669328 C81.5904875,19.8669328 81.0987409,19.216952 81.0987409,18.4499655 C81.0987409,17.6182572 81.6022342,17.0442841 82.3107179,17.0442841 C82.8494511,17.0442841 83.2126756,17.3722687 83.3179347,17.735263 L84.2196622,17.735263 C84.0791631,17.0680077 83.4291823,16.3302726 82.3167063,16.3302726 C81.1162457,16.3302726 80.244,17.2260115 80.244,18.443977 C80.244,19.6619424 81.0637313,20.581405 82.2992015,20.581405 C83.3939424,20.581405 84.0381651,19.9196775 84.2899117,19.1114626 L83.3589328,19.1114626 C83.2361689,19.4977198 82.9081843,19.8669328 82.3224645,19.8669328" id="Fill-31"></path>
                        <polygon id="Fill-32" points="87.3637774 18.0281459 85.7653129 18.0281459 85.7653129 16.4591631 84.9278464 16.4591631 84.9278464 20.4520998 85.7653129 20.4520998 85.7653129 18.7541344 87.3637774 18.7541344 87.3637774 20.4520998 88.2010134 20.4520998 88.2010134 16.4591631 87.3637774 16.4591631"></polygon>
                        <path d="M89.9281843,18.9474242 L90.2616967,17.9989405 C90.3379347,17.7939501 90.4026564,17.58919 90.4549405,17.3841996 L90.4844223,17.3841996 C90.537167,17.5832015 90.5956699,17.7704568 90.6719079,17.992952 L90.9994319,18.9474242 L89.9281843,18.9474242 Z M90.121428,16.4589789 L88.5697198,20.4521459 L89.4129443,20.4521459 L89.728952,19.5446603 L91.2044223,19.5446603 L91.5151324,20.4521459 L92.3758618,20.4521459 L90.9059194,16.4589789 L90.121428,16.4589789 Z" id="Fill-33"></path>
                        <polygon id="Fill-34" points="92.7383493 20.4522841 93.5755854 20.4522841 93.5755854 16.4591171 92.7383493 16.4591171"></polygon>
                        <polygon id="Fill-35" points="96.8017428 18.0281459 95.2035086 18.0281459 95.2035086 16.4591631 94.3660422 16.4591631 94.3660422 20.4520998 95.2035086 20.4520998 95.2035086 18.7541344 96.8017428 18.7541344 96.8017428 20.4520998 97.6394395 20.4520998 97.6394395 16.4591631 96.8017428 16.4591631"></polygon>
                        <path d="M100.349758,19.8316238 C99.6355163,19.8316238 99.091025,19.2403762 99.091025,18.4556545 C99.091025,17.6709328 99.6412745,17.0796852 100.355516,17.0796852 C101.116975,17.0796852 101.61448,17.6884376 101.61448,18.4556545 C101.61448,19.2403762 101.070219,19.8316238 100.349758,19.8316238 M100.361505,16.3302035 C99.1262649,16.3302035 98.2360537,17.3196852 98.2360537,18.4556545 C98.2360537,19.4393781 98.8917927,20.5813359 100.355516,20.5813359 C101.567724,20.5813359 102.469681,19.6208752 102.469681,18.4556545 C102.469681,17.3429482 101.678971,16.3302035 100.361505,16.3302035" id="Fill-36"></path>
                        <path d="M105.513881,18.5081459 C105.513881,18.6841152 105.525628,19.0293743 105.531386,19.2283762 L105.513881,19.2283762 C105.402864,19.0176276 105.262134,18.7366296 104.893382,18.1746334 L103.780906,16.4591631 L103.060445,16.4591631 L103.060445,20.4520998 L103.780906,20.4520998 L103.780906,18.4673781 C103.780906,18.2856507 103.76294,17.8993935 103.757182,17.7121382 L103.780906,17.7121382 C103.897681,17.9171286 104.038411,18.1746334 104.494917,18.8888752 L105.513881,20.4520998 L106.234111,20.4520998 L106.234111,16.4591631 L105.513881,16.4591631 L105.513881,18.5081459 Z" id="Fill-37"></path>
                        <path d="M107.955478,18.9474242 L108.28899,17.9989405 C108.365228,17.7939501 108.42972,17.58919 108.482234,17.3841996 L108.511486,17.3841996 C108.564461,17.5832015 108.622733,17.7704568 108.699202,17.992952 L109.026726,18.9474242 L107.955478,18.9474242 Z M108.148722,16.4589789 L106.597013,20.4521459 L107.440238,20.4521459 L107.756246,19.5446603 L109.231716,19.5446603 L109.542196,20.4521459 L110.402925,20.4521459 L108.933213,16.4589789 L108.148722,16.4589789 Z" id="Fill-38"></path>
                        <polygon id="Fill-39" points="115.941881 20.4522841 118.032092 20.4522841 118.032092 19.9255278 115.941881 19.9255278"></polygon>
                        <path d="M114.758879,18.5081459 C114.758879,18.6841152 114.770626,19.0293743 114.776384,19.2283762 L114.758879,19.2283762 C114.647631,19.0176276 114.507132,18.7366296 114.13815,18.1746334 L113.025904,16.4591631 L112.305674,16.4591631 L112.305674,20.4520998 L113.025904,20.4520998 L113.025904,18.4673781 C113.025904,18.2856507 113.007939,17.8993935 113.00218,17.7121382 L113.025904,17.7121382 C113.142679,17.9171286 113.283409,18.1746334 113.740146,18.8888752 L114.758879,20.4520998 L115.479109,20.4520998 L115.479109,16.4591631 L114.758879,16.4591631 L114.758879,18.5081459 Z" id="Fill-40"></path>
                        <path d="M117.001635,19.0529367 C116.685397,19.0529367 116.456914,18.8127063 116.456914,18.4907102 C116.456914,18.1102111 116.697144,17.9229559 117.001635,17.9229559 C117.317643,17.9229559 117.545896,18.168714 117.545896,18.4907102 C117.545896,18.8186948 117.317643,19.0529367 117.001635,19.0529367 M117.001635,17.3667179 C116.369159,17.3667179 115.853689,17.7999616 115.853689,18.4847217 C115.853689,19.1701727 116.363401,19.6091747 117.001635,19.6091747 C117.663132,19.6091747 118.143363,19.117428 118.143363,18.4847217 C118.143363,17.8407294 117.668891,17.3667179 117.001635,17.3667179" id="Fill-41"></path>
                        <polygon id="Fill-42" points="118.502349 17.173428 119.087839 17.173428 119.087839 20.4521228 119.895823 20.4521228 119.895823 16.4589559 118.502349 16.4589559"></polygon>
                    </g>
                </g>
            </g>
        </g>
    </g>
</svg>