<svg width="15" height="21" viewBox="0 0 15 21" fill="none" xmlns="http://www.w3.org/2000/svg">
<path d="M7.29848 0C3.82548 0 1 2.82548 1 6.29844C1 10.6085 6.63652 16.9359 6.8765 17.2032C7.10191 17.4542 7.49546 17.4538 7.72046 17.2032C7.96044 16.9359 13.597 10.6085 13.597 6.29844C13.5969 2.82548 10.7714 0 7.29848 0ZM7.29848 9.46737C5.55113 9.46737 4.12959 8.0458 4.12959 6.29844C4.12959 4.55109 5.55116 3.12956 7.29848 3.12956C9.0458 3.12956 10.4673 4.55113 10.4673 6.29848C10.4673 8.04583 9.0458 9.46737 7.29848 9.46737Z" fill="white"/>
<path d="M1.86963 20L13.174 20" stroke="white" stroke-width="2" stroke-linecap="round"/>
</svg>
