<svg xmlns="http://www.w3.org/2000/svg" width="13.996" height="13.996" viewBox="0 0 13.996 13.996"><path d="M7,1.244a21.457,21.457,0,0,1,2.8.078,3.606,3.606,0,0,1,1.322.233,2.731,2.731,0,0,1,1.322,1.322A3.606,3.606,0,0,1,12.674,4.2c0,.7.078.933.078,2.8a21.457,21.457,0,0,1-.078,2.8,3.606,3.606,0,0,1-.233,1.322,2.731,2.731,0,0,1-1.322,1.322,3.606,3.606,0,0,1-1.322.233c-.7,0-.933.078-2.8.078a21.457,21.457,0,0,1-2.8-.078,3.606,3.606,0,0,1-1.322-.233,2.731,2.731,0,0,1-1.322-1.322A3.606,3.606,0,0,1,1.322,9.8c0-.7-.078-.933-.078-2.8a21.457,21.457,0,0,1,.078-2.8,3.606,3.606,0,0,1,.233-1.322A2.793,2.793,0,0,1,2.1,2.1a1.315,1.315,0,0,1,.778-.544A3.606,3.606,0,0,1,4.2,1.322,21.457,21.457,0,0,1,7,1.244M7,0A22.974,22.974,0,0,0,4.121.078,4.8,4.8,0,0,0,2.41.389a3.044,3.044,0,0,0-1.244.778A3.044,3.044,0,0,0,.389,2.41,3.543,3.543,0,0,0,.078,4.121,22.974,22.974,0,0,0,0,7,22.974,22.974,0,0,0,.078,9.875a4.8,4.8,0,0,0,.311,1.711,3.044,3.044,0,0,0,.778,1.244,3.044,3.044,0,0,0,1.244.778,4.8,4.8,0,0,0,1.711.311A22.974,22.974,0,0,0,7,14a22.974,22.974,0,0,0,2.877-.078,4.8,4.8,0,0,0,1.711-.311,3.262,3.262,0,0,0,2.022-2.022,4.8,4.8,0,0,0,.311-1.711C13.918,9.1,14,8.864,14,7a22.974,22.974,0,0,0-.078-2.877,4.8,4.8,0,0,0-.311-1.711,3.044,3.044,0,0,0-.778-1.244A3.044,3.044,0,0,0,11.585.389,4.8,4.8,0,0,0,9.875.078,22.974,22.974,0,0,0,7,0M7,3.421A3.519,3.519,0,0,0,3.421,7,3.577,3.577,0,1,0,7,3.421M7,9.331A2.291,2.291,0,0,1,4.665,7,2.291,2.291,0,0,1,7,4.665,2.291,2.291,0,0,1,9.331,7,2.291,2.291,0,0,1,7,9.331M10.73,2.41a.855.855,0,1,0,.855.855.863.863,0,0,0-.855-.855" fill="#211d1e" fill-rule="evenodd"/></svg>