<svg width="93" height="30" viewBox="0 0 93 30" fill="none" xmlns="http://www.w3.org/2000/svg">
<g id="Cleaner">
<path d="M6.72656 29.4375C5.6849 29.4375 4.73698 29.1875 3.88281 28.6875C3.04948 28.1875 2.33073 27.5 1.72656 26.625C1.14323 25.75 0.695312 24.7292 0.382812 23.5625C0.0911458 22.375 -0.0338542 21.1146 0.0078125 19.7812C0.0494792 18.5312 0.205729 17.1771 0.476562 15.7188C0.768229 14.2604 1.17448 12.8021 1.69531 11.3438C2.21615 9.86458 2.84115 8.44792 3.57031 7.09375C4.32031 5.71875 5.17448 4.51042 6.13281 3.46875C7.09115 2.42708 8.15365 1.59375 9.32031 0.96875C10.487 0.322917 11.7682 0 13.1641 0C14.0182 0 14.737 0.177083 15.3203 0.53125C15.9245 0.864583 16.4036 1.3125 16.7578 1.875C17.1328 2.4375 17.3932 3.07292 17.5391 3.78125C17.6849 4.48958 17.7474 5.20833 17.7266 5.9375C17.6849 6.625 17.5807 7.29167 17.4141 7.9375C17.2682 8.58333 17.0495 9.16667 16.7578 9.6875C16.487 10.1875 16.1432 10.5938 15.7266 10.9062C15.3307 11.1979 14.8724 11.3438 14.3516 11.3438C14.1016 11.3229 13.862 11.2396 13.6328 11.0938C13.4245 10.9688 13.2057 10.7812 12.9766 10.5312C12.7682 10.2812 12.5703 9.91667 12.3828 9.4375C12.9453 9.20833 13.3828 8.8125 13.6953 8.25C14.0286 7.66667 14.2786 7.0625 14.4453 6.4375C14.6328 5.72917 14.7578 4.9375 14.8203 4.0625C14.862 3.20833 14.6849 2.58333 14.2891 2.1875C13.8932 1.79167 13.4453 1.59375 12.9453 1.59375C11.9661 1.59375 10.9349 2.10417 9.85156 3.125C8.76823 4.14583 7.75781 5.53125 6.82031 7.28125C5.90365 9.01042 5.1224 11.0312 4.47656 13.3438C3.85156 15.6562 3.48698 18.1042 3.38281 20.6875C3.34115 21.8542 3.41406 22.8438 3.60156 23.6562C3.8099 24.4688 4.09115 25.1354 4.44531 25.6562C4.82031 26.1771 5.23698 26.5521 5.69531 26.7812C6.15365 27.0104 6.61198 27.125 7.07031 27.125C7.79948 27.125 8.48698 26.9688 9.13281 26.6562C9.77865 26.3438 10.362 25.9583 10.8828 25.5C11.4245 25.0417 11.8828 24.5625 12.2578 24.0625C12.6536 23.5833 12.9557 23.1562 13.1641 22.7812C13.3099 22.5104 13.4661 22.3438 13.6328 22.2812C13.7995 22.2188 13.9453 22.2396 14.0703 22.3438C14.1953 22.4271 14.2786 22.5729 14.3203 22.7812C14.362 22.9688 14.3203 23.1979 14.1953 23.4688C13.8411 24.1771 13.4036 24.8854 12.8828 25.5938C12.3828 26.3021 11.8099 26.9375 11.1641 27.5C10.5391 28.0833 9.85156 28.5521 9.10156 28.9062C8.35156 29.2604 7.5599 29.4375 6.72656 29.4375Z" fill="#58BBA6"/>
<path d="M17.1016 23.125C18.0182 19.2708 18.7474 16.1771 19.2891 13.8438C19.8516 11.5104 20.2786 9.72917 20.5703 8.5C20.9036 7.04167 21.1328 6.03125 21.2578 5.46875C21.3203 5.07292 21.3724 4.6875 21.4141 4.3125C21.4557 3.97917 21.4766 3.63542 21.4766 3.28125C21.4766 2.92708 21.4453 2.60417 21.3828 2.3125C21.5495 2.20833 21.7266 2.125 21.9141 2.0625C22.1224 2 22.3203 1.94792 22.5078 1.90625C22.737 1.84375 22.9661 1.79167 23.1953 1.75C23.4245 1.70833 23.6328 1.6875 23.8203 1.6875C23.987 1.6875 24.1432 1.70833 24.2891 1.75C24.4349 1.77083 24.5286 1.83333 24.5703 1.9375C24.6953 2.04167 24.7474 2.25 24.7266 2.5625C24.7266 2.875 24.7057 3.19792 24.6641 3.53125C24.5807 3.92708 24.487 4.35417 24.3828 4.8125C24.1328 5.70833 23.7891 7 23.3516 8.6875C22.9766 10.125 22.4661 12.0833 21.8203 14.5625C21.1953 17.0417 20.4036 20.1667 19.4453 23.9375C19.3411 24.0417 19.2161 24.1146 19.0703 24.1562C18.9245 24.1979 18.7891 24.2188 18.6641 24.2188C18.5182 24.2188 18.362 24.2083 18.1953 24.1875C18.0495 24.1458 17.9036 24.0833 17.7578 24C17.6328 23.9167 17.5078 23.8021 17.3828 23.6562C17.2578 23.5312 17.1641 23.3542 17.1016 23.125Z" fill="#58BBA6"/>
<path d="M38.7266 17.125C38.1016 18.0417 37.3932 18.9375 36.6016 19.8125C35.8099 20.6667 34.9661 21.4375 34.0703 22.125C33.1953 22.7917 32.2891 23.3333 31.3516 23.75C30.4349 24.1667 29.5391 24.375 28.6641 24.375C28.2057 24.375 27.7057 24.2604 27.1641 24.0312C26.6432 23.8229 26.1641 23.4896 25.7266 23.0312C25.2891 22.5729 24.9349 21.9792 24.6641 21.25C24.4141 20.5208 24.3411 19.6354 24.4453 18.5938C24.5286 17.7396 24.7891 16.8438 25.2266 15.9062C25.6849 14.9479 26.237 14.0729 26.8828 13.2812C27.5495 12.4896 28.2891 11.8333 29.1016 11.3125C29.9349 10.7917 30.7682 10.5312 31.6016 10.5312C32.3932 10.5312 32.9661 10.7292 33.3203 11.125C33.6745 11.5208 33.8307 12.0104 33.7891 12.5938C33.7266 13.2396 33.5391 13.8333 33.2266 14.375C32.9349 14.9167 32.5807 15.4062 32.1641 15.8438C31.7474 16.2812 31.2995 16.6771 30.8203 17.0312C30.362 17.3854 29.9245 17.7083 29.5078 18C29.0495 18.3125 28.612 18.6146 28.1953 18.9062C27.7786 19.1771 27.4141 19.4271 27.1016 19.6562C27.1224 20.1771 27.2161 20.6146 27.3828 20.9688C27.5495 21.3229 27.7578 21.6146 28.0078 21.8438C28.2578 22.0521 28.5391 22.2083 28.8516 22.3125C29.1849 22.3958 29.5182 22.4375 29.8516 22.4375C30.5599 22.4375 31.2995 22.2188 32.0703 21.7812C32.8411 21.3229 33.5911 20.7812 34.3203 20.1562C35.0703 19.5104 35.7578 18.8438 36.3828 18.1562C37.0286 17.4688 37.5599 16.875 37.9766 16.375C38.1224 16.2083 38.2682 16.1146 38.4141 16.0938C38.5807 16.0521 38.7057 16.0729 38.7891 16.1562C38.8932 16.2188 38.9453 16.3438 38.9453 16.5312C38.9453 16.6979 38.8724 16.8958 38.7266 17.125ZM30.7266 12.3125C30.4766 12.3125 30.1745 12.4375 29.8203 12.6875C29.487 12.9375 29.1536 13.3021 28.8203 13.7812C28.487 14.2396 28.1745 14.8125 27.8828 15.5C27.5911 16.1667 27.3724 16.9375 27.2266 17.8125C27.4766 17.625 27.7474 17.4375 28.0391 17.25C28.3307 17.0417 28.6224 16.8229 28.9141 16.5938C29.8099 15.9062 30.4349 15.3021 30.7891 14.7812C31.1432 14.2604 31.3411 13.8125 31.3828 13.4375C31.4245 13.0417 31.3828 12.7604 31.2578 12.5938C31.1328 12.4062 30.9557 12.3125 30.7266 12.3125Z" fill="#58BBA6"/>
<path d="M52.5078 17.4062C52.2161 17.8229 51.8411 18.3438 51.3828 18.9688C50.9245 19.5729 50.4453 20.1875 49.9453 20.8125C49.4661 21.4167 48.987 21.9792 48.5078 22.5C48.0495 23 47.6641 23.3542 47.3516 23.5625C47.1432 23.6875 46.9036 23.7917 46.6328 23.875C46.362 23.9583 46.0807 24.0104 45.7891 24.0312C45.5182 24.0521 45.2578 24.0312 45.0078 23.9688C44.7578 23.9271 44.5391 23.8438 44.3516 23.7188C44.1641 23.5729 44.0078 23.3646 43.8828 23.0938C43.7786 22.8646 43.6745 22.5625 43.5703 22.1875C43.487 21.8125 43.4557 21.3438 43.4766 20.7812C42.9766 21.6146 42.4245 22.2604 41.8203 22.7188C41.2161 23.1562 40.6432 23.4792 40.1016 23.6875C39.4766 23.9167 38.8516 24.0521 38.2266 24.0938C37.9349 24.0938 37.6224 23.9896 37.2891 23.7812C36.9557 23.5938 36.6745 23.2917 36.4453 22.875C36.2161 22.4375 36.0703 21.8854 36.0078 21.2188C35.9453 20.5312 36.0286 19.7188 36.2578 18.7812C36.5495 17.5104 37.0078 16.3542 37.6328 15.3125C38.2786 14.2708 38.9766 13.3854 39.7266 12.6562C40.4766 11.9062 41.2161 11.3438 41.9453 10.9688C42.6745 10.5938 43.2786 10.4271 43.7578 10.4688C44.3203 10.5729 44.7786 10.7396 45.1328 10.9688C45.4245 11.1771 45.612 11.4896 45.6953 11.9062C45.7995 12.3021 45.6328 12.8333 45.1953 13.5C45.487 13.4375 45.7266 13.3958 45.9141 13.375C46.1224 13.3542 46.2786 13.3438 46.3828 13.3438C46.5078 13.3438 46.5911 13.3542 46.6328 13.375C46.6536 13.4167 46.6641 13.5104 46.6641 13.6562C46.6641 13.7812 46.6328 14.0208 46.5703 14.375C46.5078 14.7292 46.4141 15.2083 46.2891 15.8125C46.1641 16.4167 45.9974 17.1979 45.7891 18.1562C45.7474 18.3438 45.7057 18.5208 45.6641 18.6875C45.6432 18.8333 45.612 18.9896 45.5703 19.1562C45.5495 19.3021 45.5182 19.4792 45.4766 19.6875C45.4349 19.8958 45.3828 20.1562 45.3203 20.4688C45.2995 20.6562 45.2891 20.8646 45.2891 21.0938C45.3099 21.3021 45.3516 21.5 45.4141 21.6875C45.4766 21.875 45.5703 22.0312 45.6953 22.1562C45.8411 22.2604 46.0391 22.3125 46.2891 22.3125C46.4974 22.3125 46.7682 22.1875 47.1016 21.9375C47.4349 21.6667 47.7891 21.3333 48.1641 20.9375C48.5391 20.5208 48.9245 20.0729 49.3203 19.5938C49.737 19.0938 50.1224 18.6146 50.4766 18.1562C50.8307 17.6979 51.1432 17.2917 51.4141 16.9375C51.7057 16.5833 51.9141 16.3229 52.0391 16.1562C52.2057 15.9688 52.3724 15.8646 52.5391 15.8438C52.7057 15.8021 52.8307 15.8438 52.9141 15.9688C52.9974 16.0938 53.0078 16.2812 52.9453 16.5312C52.9036 16.7812 52.7578 17.0729 52.5078 17.4062ZM43.3516 18.7812C43.4557 18.3646 43.5807 17.875 43.7266 17.3125C43.8724 16.75 43.9974 16.2083 44.1016 15.6875C44.2057 15.1667 44.2786 14.7396 44.3203 14.4062C44.3828 14.0521 44.3724 13.8854 44.2891 13.9062C44.1849 13.9271 44.0703 13.9583 43.9453 14C43.8411 14.0417 43.7057 14.0729 43.5391 14.0938C43.3724 14.1146 43.2057 14.1458 43.0391 14.1875C43.2057 13.8542 43.2995 13.5833 43.3203 13.375C43.362 13.1458 43.3724 12.9688 43.3516 12.8438C43.3307 12.6979 43.2891 12.5833 43.2266 12.5C42.9974 12.3125 42.5911 12.4688 42.0078 12.9688C41.4453 13.4479 40.7891 14.3438 40.0391 15.6562C39.7266 16.1979 39.4766 16.7812 39.2891 17.4062C39.1016 18.0104 38.9661 18.5833 38.8828 19.125C38.8203 19.6667 38.8099 20.1458 38.8516 20.5625C38.8932 20.9583 38.9766 21.2188 39.1016 21.3438C39.3307 21.5729 39.5911 21.6875 39.8828 21.6875C40.1745 21.6667 40.4661 21.5833 40.7578 21.4375C41.0703 21.2708 41.3724 21.0625 41.6641 20.8125C41.9766 20.5625 42.2474 20.3021 42.4766 20.0312C42.7266 19.7604 42.9245 19.5104 43.0703 19.2812C43.237 19.0521 43.3307 18.8854 43.3516 18.7812Z" fill="#58BBA6"/>
<path d="M59.6953 24.4062C59.2161 24.4062 58.7995 24.3125 58.4453 24.125C58.112 23.9583 57.8411 23.7292 57.6328 23.4375C57.4245 23.1458 57.2891 22.8125 57.2266 22.4375C57.1641 22.0417 57.1849 21.625 57.2891 21.1875C57.3516 20.8958 57.4557 20.5104 57.6016 20.0312C57.7474 19.5312 57.8932 19 58.0391 18.4375C58.2057 17.8542 58.3516 17.2812 58.4766 16.7188C58.6224 16.1354 58.7161 15.6146 58.7578 15.1562C58.7995 14.6771 58.7786 14.2917 58.6953 14C58.612 13.6875 58.4349 13.5312 58.1641 13.5312C57.8307 13.5312 57.487 13.6458 57.1328 13.875C56.7786 14.0833 56.4141 14.375 56.0391 14.75C55.6849 15.125 55.3203 15.5625 54.9453 16.0625C54.5911 16.5417 54.237 17.0417 53.8828 17.5625C53.6953 18.2708 53.5391 18.8958 53.4141 19.4375C53.2891 19.9583 53.1745 20.4375 53.0703 20.875C52.987 21.2917 52.9036 21.6667 52.8203 22C52.737 22.3125 52.6641 22.6146 52.6016 22.9062C52.5391 23.1146 52.3516 23.3229 52.0391 23.5312C51.7266 23.7188 51.3932 23.875 51.0391 24C50.6849 24.125 50.3828 24.1875 50.1328 24.1875C49.862 24.1875 49.7474 24.0938 49.7891 23.9062C49.8099 23.7812 49.8828 23.5 50.0078 23.0625C50.112 22.625 50.2474 22.1146 50.4141 21.5312C50.5599 20.9271 50.7161 20.2917 50.8828 19.625C51.0495 18.9583 51.2057 18.3229 51.3516 17.7188C51.4557 17.2396 51.5703 16.7083 51.6953 16.125C51.7995 15.625 51.9245 15.0417 52.0703 14.375C52.237 13.7083 52.4245 12.9792 52.6328 12.1875C52.7786 12.0625 52.9245 11.9688 53.0703 11.9062C53.237 11.8229 53.4036 11.7604 53.5703 11.7188C53.737 11.6562 53.9141 11.6146 54.1016 11.5938C54.2682 11.5938 54.4349 11.6042 54.6016 11.625C54.7474 11.6458 54.8932 11.6875 55.0391 11.75C55.2057 11.7917 55.3516 11.8646 55.4766 11.9688C55.4141 12.1146 55.3411 12.3229 55.2578 12.5938C55.1745 12.8438 55.0911 13.1146 55.0078 13.4062C54.9245 13.7396 54.8203 14.0833 54.6953 14.4375C54.9661 14.0625 55.2682 13.6875 55.6016 13.3125C55.9557 12.9167 56.3307 12.5625 56.7266 12.25C57.1432 11.9375 57.5807 11.6875 58.0391 11.5C58.4974 11.2917 58.9661 11.1875 59.4453 11.1875C59.8411 11.1875 60.1953 11.3021 60.5078 11.5312C60.8203 11.7604 61.0599 12.0833 61.2266 12.5C61.4141 12.8958 61.5182 13.375 61.5391 13.9375C61.5807 14.5 61.5078 15.1146 61.3203 15.7812L60.9766 17.1562C60.8724 17.5938 60.737 18.1146 60.5703 18.7188C60.4245 19.3021 60.237 19.9479 60.0078 20.6562C59.8828 21.1146 59.8307 21.5104 59.8516 21.8438C59.8932 22.1771 60.1016 22.3438 60.4766 22.3438C60.8516 22.3438 61.3203 22.1146 61.8828 21.6562C62.4661 21.1979 63.0495 20.6458 63.6328 20C64.2161 19.3542 64.7682 18.6979 65.2891 18.0312C65.8099 17.3438 66.2057 16.7917 66.4766 16.375C66.6641 16.1042 66.8411 15.9271 67.0078 15.8438C67.1745 15.7604 67.2995 15.75 67.3828 15.8125C67.487 15.875 67.5391 16.0208 67.5391 16.25C67.5391 16.4583 67.4557 16.7292 67.2891 17.0625C67.1432 17.3542 66.9141 17.7396 66.6016 18.2188C66.3099 18.6979 65.9557 19.2083 65.5391 19.75C65.1224 20.2917 64.6745 20.8438 64.1953 21.4062C63.7161 21.9479 63.2161 22.4479 62.6953 22.9062C62.1745 23.3438 61.6536 23.6979 61.1328 23.9688C60.6328 24.2604 60.1536 24.4062 59.6953 24.4062Z" fill="#58BBA6"/>
<path d="M79.3516 17.125C78.7266 18.0417 78.0182 18.9375 77.2266 19.8125C76.4349 20.6667 75.5911 21.4375 74.6953 22.125C73.8203 22.7917 72.9141 23.3333 71.9766 23.75C71.0599 24.1667 70.1641 24.375 69.2891 24.375C68.8307 24.375 68.3307 24.2604 67.7891 24.0312C67.2682 23.8229 66.7891 23.4896 66.3516 23.0312C65.9141 22.5729 65.5599 21.9792 65.2891 21.25C65.0391 20.5208 64.9661 19.6354 65.0703 18.5938C65.1536 17.7396 65.4141 16.8438 65.8516 15.9062C66.3099 14.9479 66.862 14.0729 67.5078 13.2812C68.1745 12.4896 68.9141 11.8333 69.7266 11.3125C70.5599 10.7917 71.3932 10.5312 72.2266 10.5312C73.0182 10.5312 73.5911 10.7292 73.9453 11.125C74.2995 11.5208 74.4557 12.0104 74.4141 12.5938C74.3516 13.2396 74.1641 13.8333 73.8516 14.375C73.5599 14.9167 73.2057 15.4062 72.7891 15.8438C72.3724 16.2812 71.9245 16.6771 71.4453 17.0312C70.987 17.3854 70.5495 17.7083 70.1328 18C69.6745 18.3125 69.237 18.6146 68.8203 18.9062C68.4036 19.1771 68.0391 19.4271 67.7266 19.6562C67.7474 20.1771 67.8411 20.6146 68.0078 20.9688C68.1745 21.3229 68.3828 21.6146 68.6328 21.8438C68.8828 22.0521 69.1641 22.2083 69.4766 22.3125C69.8099 22.3958 70.1432 22.4375 70.4766 22.4375C71.1849 22.4375 71.9245 22.2188 72.6953 21.7812C73.4661 21.3229 74.2161 20.7812 74.9453 20.1562C75.6953 19.5104 76.3828 18.8438 77.0078 18.1562C77.6536 17.4688 78.1849 16.875 78.6016 16.375C78.7474 16.2083 78.8932 16.1146 79.0391 16.0938C79.2057 16.0521 79.3307 16.0729 79.4141 16.1562C79.5182 16.2188 79.5703 16.3438 79.5703 16.5312C79.5703 16.6979 79.4974 16.8958 79.3516 17.125ZM71.3516 12.3125C71.1016 12.3125 70.7995 12.4375 70.4453 12.6875C70.112 12.9375 69.7786 13.3021 69.4453 13.7812C69.112 14.2396 68.7995 14.8125 68.5078 15.5C68.2161 16.1667 67.9974 16.9375 67.8516 17.8125C68.1016 17.625 68.3724 17.4375 68.6641 17.25C68.9557 17.0417 69.2474 16.8229 69.5391 16.5938C70.4349 15.9062 71.0599 15.3021 71.4141 14.7812C71.7682 14.2604 71.9661 13.8125 72.0078 13.4375C72.0495 13.0417 72.0078 12.7604 71.8828 12.5938C71.7578 12.4062 71.5807 12.3125 71.3516 12.3125Z" fill="#58BBA6"/>
<path d="M75.9141 23.4688C75.7682 23.6979 75.612 23.8438 75.4453 23.9062C75.2578 23.9896 75.1016 24 74.9766 23.9375C74.8307 23.8958 74.737 23.7917 74.6953 23.625C74.6536 23.4583 74.6953 23.25 74.8203 23C74.8828 22.875 75.0286 22.5938 75.2578 22.1562C75.4661 21.7188 75.7266 21.1979 76.0391 20.5938C76.3307 19.9688 76.6536 19.3021 77.0078 18.5938C77.362 17.8646 77.6953 17.1771 78.0078 16.5312C78.3411 15.8854 78.6432 15.3125 78.9141 14.8125C79.1849 14.2917 79.3828 13.9167 79.5078 13.6875C79.2786 13.4792 79.1224 13.3333 79.0391 13.25C78.9557 13.1458 78.8932 12.9375 78.8516 12.625C78.8099 12.3542 78.8724 12 79.0391 11.5625C79.2057 11.125 79.4245 10.7083 79.6953 10.3125C79.9661 9.89583 80.2682 9.54167 80.6016 9.25C80.9349 8.95833 81.2578 8.8125 81.5703 8.8125C82.1536 8.8125 82.5599 9 82.7891 9.375C83.0391 9.75 83.1849 10.1354 83.2266 10.5312C83.2682 10.8021 83.2474 11.1458 83.1641 11.5625C83.0807 11.9792 82.9245 12.3542 82.6953 12.6875C82.7578 12.7292 82.8411 12.7812 82.9453 12.8438C83.0495 12.8854 83.2161 12.9062 83.4453 12.9062C83.7786 12.9062 84.0078 12.8854 84.1328 12.8438C84.2786 12.8021 84.4974 12.7812 84.7891 12.7812C85.1432 12.7812 85.4349 12.875 85.6641 13.0625C85.8932 13.2292 86.0807 13.4479 86.2266 13.7188C86.3724 13.9688 86.4766 14.25 86.5391 14.5625C86.6224 14.8542 86.6745 15.125 86.6953 15.375C86.7578 15.8958 86.6224 16.4375 86.2891 17C85.9557 17.5625 85.5495 18.1771 85.0703 18.8438C84.7786 19.2604 84.487 19.7292 84.1953 20.25C83.9036 20.7708 83.7786 21.2396 83.8203 21.6562C83.862 21.9271 83.9349 22.1458 84.0391 22.3125C84.1432 22.4792 84.4349 22.5625 84.9141 22.5625C85.2682 22.5625 85.6536 22.4375 86.0703 22.1875C86.5078 21.9167 86.9453 21.5833 87.3828 21.1875C87.8411 20.7708 88.2891 20.3229 88.7266 19.8438C89.1641 19.3438 89.5703 18.8646 89.9453 18.4062C90.3203 17.9271 90.6328 17.5 90.8828 17.125C91.1536 16.75 91.3516 16.4792 91.4766 16.3125C91.5807 16.1458 91.7161 16.0312 91.8828 15.9688C92.0495 15.9062 92.1953 15.9062 92.3203 15.9688C92.4453 16.0312 92.5182 16.1562 92.5391 16.3438C92.5807 16.5312 92.5078 16.7812 92.3203 17.0938C92.1953 17.3021 91.9766 17.6354 91.6641 18.0938C91.3724 18.5521 91.0078 19.0625 90.5703 19.625C90.1536 20.1875 89.6849 20.7708 89.1641 21.375C88.6432 21.9583 88.0911 22.5 87.5078 23C86.9453 23.4792 86.3724 23.875 85.7891 24.1875C85.2266 24.5 84.6849 24.6562 84.1641 24.6562C83.6224 24.6562 83.1745 24.5521 82.8203 24.3438C82.4661 24.1354 82.1745 23.8854 81.9453 23.5938C81.737 23.2812 81.5807 22.9479 81.4766 22.5938C81.3932 22.2188 81.362 21.875 81.3828 21.5625C81.4036 21.3125 81.4661 21.0521 81.5703 20.7812C81.6953 20.4896 81.8307 20.1979 81.9766 19.9062C82.1432 19.5938 82.3099 19.2917 82.4766 19C82.6641 18.6875 82.8307 18.3854 82.9766 18.0938C83.3307 17.4896 83.612 16.9792 83.8203 16.5625C84.0495 16.125 84.1641 15.7604 84.1641 15.4688C84.1641 15.2812 84.1224 15.1146 84.0391 14.9688C83.9557 14.8229 83.8203 14.75 83.6328 14.75C83.5078 14.75 83.4141 14.7604 83.3516 14.7812C83.3099 14.7812 83.2578 14.7812 83.1953 14.7812C83.1536 14.7812 83.0807 14.7917 82.9766 14.8125C82.8932 14.8125 82.7578 14.8125 82.5703 14.8125C82.2995 14.8125 82.0703 14.7708 81.8828 14.6875C81.6953 14.6042 81.5182 14.5417 81.3516 14.5C81.2682 14.6458 81.0807 14.9583 80.7891 15.4375C80.4974 15.9167 80.1536 16.4792 79.7578 17.125C79.3828 17.7708 78.9766 18.4479 78.5391 19.1562C78.1224 19.8646 77.7266 20.5312 77.3516 21.1562C76.9766 21.7604 76.6641 22.2812 76.4141 22.7188C76.1432 23.1354 75.9766 23.3854 75.9141 23.4688Z" fill="#58BBA6"/>
</g>
</svg>
