<svg xmlns="http://www.w3.org/2000/svg" width="13.996" height="11.352" viewBox="0 0 13.996 11.352"><path d="M42.432,13.352A8.092,8.092,0,0,0,50.6,5.188V4.8A6.32,6.32,0,0,0,52,3.322a6.455,6.455,0,0,1-1.633.467,3.025,3.025,0,0,0,1.244-1.555,7.132,7.132,0,0,1-1.788.7A2.777,2.777,0,0,0,47.719,2a2.921,2.921,0,0,0-2.877,2.877,1.516,1.516,0,0,0,.078.622,8.039,8.039,0,0,1-5.909-3.032,2.978,2.978,0,0,0-.389,1.477,3.089,3.089,0,0,0,1.244,2.41,2.621,2.621,0,0,1-1.322-.389h0a2.842,2.842,0,0,0,2.333,2.8,2.4,2.4,0,0,1-.778.078,1.323,1.323,0,0,1-.544-.078,2.946,2.946,0,0,0,2.721,2.022A5.871,5.871,0,0,1,38.7,12.03a2.153,2.153,0,0,1-.7-.078,7.339,7.339,0,0,0,4.432,1.4" transform="translate(-38 -2)" fill="#211d1e" fill-rule="evenodd"/></svg>