<svg xmlns="http://www.w3.org/2000/svg" width="48.034" height="48.007" viewBox="0 0 48.034 48.007"><g transform="translate(-377.546 -387.544)"><path d="M377.6,411.567c0-4.029.145-8.065-.043-12.086-.167-3.577,1.531-5.859,4.378-7.584a29.105,29.105,0,0,1,10.856-3.65,53.587,53.587,0,0,1,21.515.84,22.468,22.468,0,0,1,8.038,3.6,7.271,7.271,0,0,1,3.214,6.266c-.082,8.236-.136,16.476.02,24.71.067,3.532-1.545,5.791-4.34,7.5a28.808,28.808,0,0,1-10.848,3.673,53.251,53.251,0,0,1-21.619-.85c-3.358-.868-6.582-2.1-9.149-4.6a6.322,6.322,0,0,1-2.031-4.763C377.618,420.268,377.6,415.918,377.6,411.567Zm2.99-8.208c0,6.9.084,13.64-.046,20.375a4.768,4.768,0,0,0,2.833,4.819,36.753,36.753,0,0,0,6.723,2.63,48.263,48.263,0,0,0,19.925.656,26.733,26.733,0,0,0,9.758-3.254,5.114,5.114,0,0,0,2.8-4.865c-.131-6.379-.045-12.763-.045-19.144v-1.225c-6.491,4.278-13.662,5.16-20.982,5.16S387.071,407.619,380.59,403.359Zm21.021-12.8a46.245,46.245,0,0,0-11.538,1.313c-2.941.744-5.844,1.635-8.169,3.74-1.731,1.568-1.844,3.443,0,4.82a19.217,19.217,0,0,0,5.28,2.905,47.338,47.338,0,0,0,26.127.832,17.043,17.043,0,0,0,7.952-3.7c1.672-1.534,1.787-3.4-.005-4.749a21.508,21.508,0,0,0-5.268-2.931A41.176,41.176,0,0,0,401.611,390.561Z" transform="translate(0 0)"/><path d="M406.123,492.841h2.836v5.886h-2.836Z" transform="translate(-22.463 -82.77)"/><path d="M406.186,534.961h2.847v2.9h-2.847Z" transform="translate(-22.513 -115.879)"/><path d="M451.229,414.648c2.165.363,4.353.629,6.485,1.13a8.359,8.359,0,0,1,2.829,1.425,2.611,2.611,0,0,1,0,4.355,11.024,11.024,0,0,1-5.541,2.034,23.348,23.348,0,0,1-10.25-.617,10.352,10.352,0,0,1-2.838-1.419,2.621,2.621,0,0,1,0-4.422,11.751,11.751,0,0,1,5.658-2.022c1.192-.183,2.409-.2,3.615-.294Z" transform="translate(-49.645 -21.305)"/></g></svg>