<svg xmlns="http://www.w3.org/2000/svg" width="50.462" height="48.099" viewBox="0 0 50.462 48.099"><g transform="translate(-388.846 -431.312)"><path d="M402.715,464.408c1.566,0,3.065-.023,4.562.011.6.014.88-.174.985-.78.082-.47.353-.9.482-1.371.207-.748,1.194-1.337.387-2.3-.506-.605-.786-1.4-1.315-1.983a4.476,4.476,0,0,1-.654-4.73,1.359,1.359,0,0,0,.026-1.422,4.408,4.408,0,0,1-.036-3.8,1.9,1.9,0,0,0,.009-1.287,4.98,4.98,0,0,1-.033-3.817,8.961,8.961,0,0,0,.626-2.414,4.85,4.85,0,0,1,4.091-4.539,4.638,4.638,0,0,1,5.205,3.294,2.509,2.509,0,0,1,.16.873,4.936,4.936,0,0,0,.7,2.87,4.063,4.063,0,0,1,.058,3.578,2.316,2.316,0,0,0-.017,1.521,4.882,4.882,0,0,1-.02,3.707,2.114,2.114,0,0,0,0,1.421,4.18,4.18,0,0,1-1.134,5.069,3.517,3.517,0,0,0-.726,3.467c.362.819.662,1.665,1.042,2.633h4.947a2.485,2.485,0,0,1,1,.031,4.843,4.843,0,0,1,.969.826c-.328.229-.648.638-.986.654-1.534.072-3.073.029-4.61.034-.365,0-.73.031-1.149.051-.039.58-.038,1.1-.115,1.609-.156,1.033-.776,1.506-1.733,1.139a30.555,30.555,0,0,1-3.055-1.57c-.563.364-1.277.9-2.06,1.315-1.587.833-2.161.535-2.453-1.184-.069-.4-.1-.816-.155-1.293h-4.836c-.032.516-.038,1-.1,1.468-.14,1.16-.765,1.647-1.843,1.237a26.616,26.616,0,0,1-2.949-1.556c-.567.367-1.278.909-2.058,1.317-1.631.853-2.191.548-2.487-1.265-.06-.368-.081-.743-.137-1.277-.49,0-1,.021-1.509,0a2.9,2.9,0,0,1-2.944-3.024q-.022-14.225,0-28.449a2.9,2.9,0,0,1,2.984-3.113c1.8-.066,3.6-.056,5.4.018.366.015.715.46,1.071.707-.378.259-.743.717-1.136.742-1.419.091-2.847.036-4.272.036-2.369,0-2.59.215-2.59,2.546q0,10.795,0,21.59c0,1.874-.024,3.749.009,5.622a2.137,2.137,0,0,0,3.182,1.724c.158-.095.228-.361.3-.56a6.583,6.583,0,0,1,.5-1.364c1.243-1.84.419-3.2-.919-4.508a4.477,4.477,0,0,1-.64-4.738,1.854,1.854,0,0,0,.013-1.283,4.907,4.907,0,0,1,.028-3.918,1.675,1.675,0,0,0-.007-1.189,4.87,4.87,0,0,1-.021-3.917,7.816,7.816,0,0,0,.594-2.309,4.832,4.832,0,0,1,4.051-4.571,4.426,4.426,0,0,1,5.179,3.262,48.7,48.7,0,0,0,1.231,4.8c.257.779-.226,1.795-.339,2.707a2.5,2.5,0,0,0,.009,1.212,4.72,4.72,0,0,1,.017,3.912,1.748,1.748,0,0,0-.025,1.213,4.209,4.209,0,0,1-1.136,5.257,3.465,3.465,0,0,0-.642,3.491C402.055,462.654,402.356,463.5,402.715,464.408Zm-9.152-9.212c.413.663.8,1.308,1.212,1.939a8.536,8.536,0,0,1,.98,1.446c.505,1.324,1.23,1.986,2.391,1.978a2.523,2.523,0,0,0,2.388-2.015,3.037,3.037,0,0,1,.637-1.149c1.5-1.476,1.629-2.467.6-4.217a1.588,1.588,0,0,1,.019-1.358,2.916,2.916,0,0,0,.02-3.633,1.2,1.2,0,0,1,.052-1.688,2.9,2.9,0,0,0,.207-3.171,6.841,6.841,0,0,1-.628-2.3c-.116-2.175-1.38-3.638-3.311-3.646-1.909-.008-3.183,1.466-3.263,3.642a4.413,4.413,0,0,1-.506,2,2.948,2.948,0,0,0,.135,3.639.966.966,0,0,1,.023,1.387,2.8,2.8,0,0,0,.01,3.795,1.011,1.011,0,0,1-.027,1.4A14.5,14.5,0,0,0,393.564,455.2Zm23.4-5.226a7.24,7.24,0,0,0-.658-1.648,1.325,1.325,0,0,1,.005-1.883,2.85,2.85,0,0,0,.192-3.073,7.68,7.68,0,0,1-.649-2.411c-.134-2.158-1.435-3.6-3.38-3.573-1.864.031-3.1,1.491-3.2,3.6a5.5,5.5,0,0,1-.6,2.2,2.859,2.859,0,0,0,.151,3.352,1.153,1.153,0,0,1,0,1.669,2.632,2.632,0,0,0-.033,3.421,1.235,1.235,0,0,1,.012,1.761c-1.017,1.36-.767,2.645.507,3.869a3.552,3.552,0,0,1,.844,1.281c.5,1.358,1.214,2.011,2.358,2.021,1.174.009,1.947-.684,2.448-2.082a3.014,3.014,0,0,1,.754-1.2,2.674,2.674,0,0,0,.571-3.847,1.31,1.31,0,0,1,.037-1.878A5.791,5.791,0,0,0,416.959,449.97Zm-22.311,17.1.52.282a23.313,23.313,0,0,0,2.046-1.65c.682-.681,1.186-.7,1.857.022a20.79,20.79,0,0,0,1.972,1.685l.312-.226a9.255,9.255,0,0,0-1.314-5.323h-4.06Zm14.4-.016.458.248c.515-.343,1.064-.645,1.54-1.036,1.525-1.252,1.5-1.251,3.035.092a18.407,18.407,0,0,0,1.667,1.148,9.637,9.637,0,0,0-1.31-5.645H410.4Z"/><path d="M421.375,612.412q-10.507-.261-21.013-.523c-1.741-.044-2.026-.335-2.036-2.045-.007-1.161-.018-2.323,0-3.484.026-1.363.379-1.713,1.745-1.752,4.644-.133,9.288-.269,13.933-.381q14.1-.34,28.206-.658c1.881-.044,2.239.294,2.243,2.173,0,1.8.015,3.6,0,5.394-.015,1.38-.461,1.82-1.839,1.787q-10.619-.251-21.238-.526Zm21.533-3.375h-43v1.4l43,1.007Zm.022-3.947-43.027.964v1.41H442.93Z" transform="translate(-7.342 -133.515)"/><path d="M474.469,438.04c0-1.23.016-2.353,0-3.475-.023-1.248-.46-1.694-1.7-1.7-3-.015-6-.005-9-.006H441.715a2.6,2.6,0,0,1-1-.045c-.289-.13-.669-.473-.667-.719s.389-.568.679-.713a2.149,2.149,0,0,1,.887-.04q15.356,0,30.711,0c2.584,0,3.683,1.109,3.688,3.7,0,.375.019.751,0,1.124a7.188,7.188,0,0,0,1.4,5.069c2.447,3.315,1.957,7.694-.726,11.034a3.161,3.161,0,0,0-.639,1.784c-.066,2.81-.022,5.622-.032,8.434-.008,2.305-1.167,3.463-3.445,3.466-1.875,0-3.752.042-5.624-.032-.412-.016-1.113-.4-1.153-.685-.1-.729.545-.83,1.153-.828,1.912.007,3.825.012,5.737,0,1.371-.01,1.776-.387,1.784-1.7.016-2.772,0-5.544,0-8.433-5.45,2.414-9.936,1.408-13.1-3.7-1.944-3.133-1.373-7.558,1.1-10.5C465.236,436.765,468.954,436.114,474.469,438.04Zm2.974,8.118a7.921,7.921,0,0,0-7.876-7.869,7.873,7.873,0,1,0,.011,15.746A7.912,7.912,0,0,0,477.443,446.158Z" transform="translate(-39.688 -0.003)"/><path d="M423.93,481.556c.4.116.843.12,1.078.344.325.31.755.852.673,1.177-.181.718-.746.4-1.256.205-.294-.114-.681.037-1.021.009-.411-.033-.816-.129-1.224-.2.172-.367.258-.835.539-1.074A3.842,3.842,0,0,1,423.93,481.556Z" transform="translate(-25.838 -38.945)"/><path d="M424.074,506.954a4.189,4.189,0,0,1,1.259.537c.269.249.332.722.485,1.1a11.1,11.1,0,0,1-1.127.21,7.165,7.165,0,0,1-1.235,0c-.389-.033-.773-.13-1.159-.2.152-.369.21-.848.48-1.08A4.625,4.625,0,0,1,424.074,506.954Z" transform="translate(-25.928 -58.631)"/><path d="M424.048,532.6a7.158,7.158,0,0,1,1.471.7.98.98,0,0,1,.207.941c-.119.2-.611.231-.944.255a8.512,8.512,0,0,1-1.422-.025,9.128,9.128,0,0,1-1.082-.23c.122-.352.145-.818.389-1.027A5.421,5.421,0,0,1,424.048,532.6Z" transform="translate(-25.913 -78.508)"/><path d="M488.23,481.653c.323.094.768.1,1.005.321.328.309.766.85.684,1.174-.177.705-.747.436-1.258.209a1.182,1.182,0,0,0-.913-.016c-.526.284-1.1.452-1.275-.183-.088-.327.414-.887.761-1.23C487.436,481.727,487.855,481.746,488.23,481.653Z" transform="translate(-75.664 -39.02)"/><path d="M488.155,506.94a3.849,3.849,0,0,1,1.284.514,3.344,3.344,0,0,1,.5,1.181c-.385.041-.77.093-1.156.122a9.667,9.667,0,0,1-1.24.051,8.556,8.556,0,0,1-1.07-.188c.1-.351.092-.828.323-1.024A5.62,5.62,0,0,1,488.155,506.94Z" transform="translate(-75.67 -58.62)"/><path d="M488.006,532.808a3.341,3.341,0,0,1,1.18.415,3.856,3.856,0,0,1,.608,1.147c-.413.053-.826.113-1.241.155a6.656,6.656,0,0,1-1.139.072,8.809,8.809,0,0,1-1.157-.233c.17-.368.253-.836.532-1.077A3.916,3.916,0,0,1,488.006,532.808Z" transform="translate(-75.503 -78.671)"/><path d="M551.1,482.972a5.869,5.869,0,1,1-.072-11.738,5.869,5.869,0,0,1,.072,11.738Zm-.023-1.5a4.368,4.368,0,1,0-.085-8.735,4.368,4.368,0,1,0,.085,8.735Z" transform="translate(-121.145 -30.945)"/></g></svg>