<svg xmlns="http://www.w3.org/2000/svg" width="51.528" height="51.461" viewBox="0 0 51.528 51.461"><path d="M367.9,487.194c.438-2.3-.774-4.846,1.819-6.389a6.417,6.417,0,0,1-1.7-4.617,6.247,6.247,0,0,1,2.148-4.3c-.93-.633-1.828-1.234-2.716-1.851a1.336,1.336,0,0,1-.331-2.217c.783-.989,1.477-2.049,2.225-3.066.712-.969,1.128-1.007,2.079-.3.439.327.926.591,1.623,1.029v-1.507q0-7.3,0-14.6c0-.765,0-1.6,1.023-1.569.967.032,1.021.857,1.02,1.624q-.005,7.243,0,14.486v1.553c.7-.445,1.219-.72,1.671-1.083.7-.562,1.306-.59,1.854.167.831,1.147,1.647,2.3,2.478,3.45a1.185,1.185,0,0,1-.3,1.875c-.924.67-1.856,1.328-2.78,1.988,2.639,3.267,2.775,5.808.635,8.584a16.261,16.261,0,0,1,1.407,3.143,17.617,17.617,0,0,1,.052,3.51h4.527c.482-2.187-.858-4.814,1.774-6.278-2.415-3.408-2.3-5.612.4-8.949-.948-.674-1.91-1.33-2.839-2.03a1.183,1.183,0,0,1-.24-1.88c.808-1.067,1.588-2.157,2.352-3.256.578-.831,1.18-.981,2-.288a13.859,13.859,0,0,0,1.726,1.053v-1.522q0-7.243,0-14.486c0-.23-.089-.518.016-.678.245-.37.575-.931.887-.942s.777.476.971.85a2.864,2.864,0,0,1,.107,1.242q.008,6.955,0,13.911v1.579a20.389,20.389,0,0,0,1.749-1.1,1.07,1.07,0,0,1,1.756.211c.857,1.175,1.7,2.358,2.553,3.538a1.05,1.05,0,0,1-.165,1.614c-.964.744-1.957,1.449-3,2.218a6.307,6.307,0,0,1,2.086,4.316,6.2,6.2,0,0,1-1.687,4.533,3.413,3.413,0,0,1,1.689,2.879c-.036,1.137-.008,2.276-.008,3.484h4.532c.636-2.1-.9-4.848,1.842-6.295-2.438-3.241-2.305-5.819.371-8.968-.953-.674-1.92-1.336-2.864-2.032a1.147,1.147,0,0,1-.245-1.794c.851-1.18,1.681-2.374,2.543-3.545a1.071,1.071,0,0,1,1.69-.2c.5.367,1.036.7,1.788,1.2v-1.539q0-7.128,0-14.256a2.359,2.359,0,0,1,.1-1.123c.2-.338.654-.748.978-.732s.692.476.908.824c.139.224.046.6.046.9q0,7.185,0,14.371v1.554c.731-.479,1.271-.792,1.766-1.166a1.107,1.107,0,0,1,1.777.211c.86,1.173,1.689,2.369,2.552,3.539a1.1,1.1,0,0,1-.216,1.705c-.935.717-1.92,1.37-2.972,2.112a6.294,6.294,0,0,1,2.117,4.265,5.9,5.9,0,0,1-1.417,4.274,17.471,17.471,0,0,1,1.393,3.23,17.937,17.937,0,0,1,.051,3.535c.607,0,1.1-.018,1.586,0,1.172.051,1.474.4,1.4,1.593a7.026,7.026,0,0,1-5.53,6.263,1.614,1.614,0,0,0-1.309,1.054c-.238.521-.5,1.035-.776,1.534a2.948,2.948,0,0,1-2.715,1.616q-15.406.006-30.811,0a2.957,2.957,0,0,1-2.716-1.616,8.769,8.769,0,0,1-.678-1.326,2,2,0,0,0-1.628-1.326,6.822,6.822,0,0,1-5.234-5.626c-.353-1.681.037-2.146,1.768-2.171C367.19,487.19,367.53,487.194,367.9,487.194Zm-.805,2.029a11.636,11.636,0,0,0,.7,1.634,5.21,5.21,0,0,0,4.791,2.4q11.094,0,22.187,0c.708,0,1.5-.045,1.532.933.041,1.072-.811,1.022-1.546,1.049-.268.01-.536,0-.8,0H373.834c.6,1.924.674,1.982,2.385,1.982H405.3c1.67,0,1.816-.12,2.331-1.982-1.1,0-2.163.023-3.228-.008-.8-.023-1.918.237-1.905-1.022.013-1.307,1.17-.911,1.939-.944,2.025-.088,4.069.019,6.072-.227a4.107,4.107,0,0,0,3.639-3.819Zm2.952-12.684a3.961,3.961,0,0,0,4.006,3.984,3.979,3.979,0,1,0-.016-7.958A3.913,3.913,0,0,0,370.046,476.539Zm41.4-.025a3.922,3.922,0,0,0-4.014-3.949,3.979,3.979,0,1,0,.033,7.957A3.96,3.96,0,0,0,411.442,476.514Zm-20.708-3.949a3.931,3.931,0,0,0-4,3.976,4,4,0,0,0,8.009-.021A3.927,3.927,0,0,0,390.734,472.566Zm-20.685,14.528H378.1c0-1.167.015-2.235-.005-3.3a1.059,1.059,0,0,0-1.121-1.182q-2.929-.025-5.858,0a.966.966,0,0,0-1.063,1.079C370.05,484.795,370.048,485.9,370.048,487.094Zm33.374,0h8.032c0-1.2.007-2.3,0-3.406a.979.979,0,0,0-1.069-1.079q-2.922-.026-5.845,0a1.03,1.03,0,0,0-1.114,1.167C403.419,484.84,403.422,485.9,403.422,487.1Zm-8.676.028c0-1.234.015-2.335-.006-3.435a.981.981,0,0,0-1.068-1.078q-2.918-.015-5.836,0a.988.988,0,0,0-1.1,1.055c-.027,1.131-.008,2.263-.008,3.461Zm.991-18.521-1.592-2.166a6.22,6.22,0,0,1-6.833.011l-1.56,2.16A7.571,7.571,0,0,0,395.738,468.6Zm8.238-2.1-1.529,2.128c2.772,2.512,7.9,2.461,9.949-.081l-1.5-2.057C407.9,467.8,407,467.8,403.976,466.5Zm-34.945,2.143c2.925,2.479,7.48,2.437,10-.044l-1.571-2.147a6.343,6.343,0,0,1-6.866.009Z" transform="translate(-364.963 -447.802)"/></svg>